<?xml version="1.0" encoding="utf-8" standalone="no"?>
<!DOCTYPE svg PUBLIC "-//W3C//DTD SVG 1.1//EN"
  "http://www.w3.org/Graphics/SVG/1.1/DTD/svg11.dtd">
<svg xmlns:xlink="http://www.w3.org/1999/xlink" width="691.2pt" height="388.8pt" viewBox="0 0 691.2 388.8" xmlns="http://www.w3.org/2000/svg" version="1.1">
 <metadata>
  <rdf:RDF xmlns:dc="http://purl.org/dc/elements/1.1/" xmlns:cc="http://creativecommons.org/ns#" xmlns:rdf="http://www.w3.org/1999/02/22-rdf-syntax-ns#">
   <cc:Work>
    <dc:type rdf:resource="http://purl.org/dc/dcmitype/StillImage"/>
    <dc:date>2026-04-21T22:05:21.514862</dc:date>
    <dc:format>image/svg+xml</dc:format>
    <dc:creator>
     <cc:Agent>
      <dc:title>Matplotlib v3.6.3, https://matplotlib.org/</dc:title>
     </cc:Agent>
    </dc:creator>
   </cc:Work>
  </rdf:RDF>
 </metadata>
 <defs>
  <style type="text/css">*{stroke-linejoin: round; stroke-linecap: butt}</style>
 </defs>
 <g id="figure_1">
  <g id="patch_1">
   <path d="M 0 388.8 
L 691.2 388.8 
L 691.2 0 
L 0 0 
z
" style="fill: #ffffff"/>
  </g>
  <g id="axes_1">
   <g id="patch_2">
    <path d="M 86.4 346.032 
L 622.08 346.032 
L 622.08 46.656 
L 86.4 46.656 
z
" style="fill: #ffffff"/>
   </g>
   <g id="matplotlib.axis_1">
    <g id="xtick_1">
     <g id="line2d_1">
      <path d="M 104.256 346.032 
L 104.256 46.656 
" clip-path="url(#p6bf9448cf7)" style="fill: none; stroke-dasharray: 2.96,1.28; stroke-dashoffset: 0; stroke: #b0b0b0; stroke-width: 0.8"/>
     </g>
     <g id="line2d_2">
      <defs>
       <path id="m544dadbf3b" d="M 0 0 
L 0 3.5 
" style="stroke: #000000; stroke-width: 0.8"/>
      </defs>
      <g>
       <use xlink:href="#m544dadbf3b" x="104.256" y="346.032" style="stroke: #000000; stroke-width: 0.8"/>
      </g>
     </g>
     <g id="text_1">
      <!-- 7 -->
      <g transform="translate(101.07475 360.630438) scale(0.1 -0.1)">
       <defs>
        <path id="DejaVuSans-37" d="M 525 4666 
L 3525 4666 
L 3525 4397 
L 1831 0 
L 1172 0 
L 2766 4134 
L 525 4134 
L 525 4666 
z
" transform="scale(0.015625)"/>
       </defs>
       <use xlink:href="#DejaVuSans-37"/>
      </g>
     </g>
    </g>
    <g id="xtick_2">
     <g id="line2d_3">
      <path d="M 139.968 346.032 
L 139.968 46.656 
" clip-path="url(#p6bf9448cf7)" style="fill: none; stroke-dasharray: 2.96,1.28; stroke-dashoffset: 0; stroke: #b0b0b0; stroke-width: 0.8"/>
     </g>
     <g id="line2d_4">
      <g>
       <use xlink:href="#m544dadbf3b" x="139.968" y="346.032" style="stroke: #000000; stroke-width: 0.8"/>
      </g>
     </g>
     <g id="text_2">
      <!-- 8 -->
      <g transform="translate(136.78675 360.630438) scale(0.1 -0.1)">
       <defs>
        <path id="DejaVuSans-38" d="M 2034 2216 
Q 1584 2216 1326 1975 
Q 1069 1734 1069 1313 
Q 1069 891 1326 650 
Q 1584 409 2034 409 
Q 2484 409 2743 651 
Q 3003 894 3003 1313 
Q 3003 1734 2745 1975 
Q 2488 2216 2034 2216 
z
M 1403 2484 
Q 997 2584 770 2862 
Q 544 3141 544 3541 
Q 544 4100 942 4425 
Q 1341 4750 2034 4750 
Q 2731 4750 3128 4425 
Q 3525 4100 3525 3541 
Q 3525 3141 3298 2862 
Q 3072 2584 2669 2484 
Q 3125 2378 3379 2068 
Q 3634 1759 3634 1313 
Q 3634 634 3220 271 
Q 2806 -91 2034 -91 
Q 1263 -91 848 271 
Q 434 634 434 1313 
Q 434 1759 690 2068 
Q 947 2378 1403 2484 
z
M 1172 3481 
Q 1172 3119 1398 2916 
Q 1625 2713 2034 2713 
Q 2441 2713 2670 2916 
Q 2900 3119 2900 3481 
Q 2900 3844 2670 4047 
Q 2441 4250 2034 4250 
Q 1625 4250 1398 4047 
Q 1172 3844 1172 3481 
z
" transform="scale(0.015625)"/>
       </defs>
       <use xlink:href="#DejaVuSans-38"/>
      </g>
     </g>
    </g>
    <g id="xtick_3">
     <g id="line2d_5">
      <path d="M 175.68 346.032 
L 175.68 46.656 
" clip-path="url(#p6bf9448cf7)" style="fill: none; stroke-dasharray: 2.96,1.28; stroke-dashoffset: 0; stroke: #b0b0b0; stroke-width: 0.8"/>
     </g>
     <g id="line2d_6">
      <g>
       <use xlink:href="#m544dadbf3b" x="175.68" y="346.032" style="stroke: #000000; stroke-width: 0.8"/>
      </g>
     </g>
     <g id="text_3">
      <!-- 9 -->
      <g transform="translate(172.49875 360.630438) scale(0.1 -0.1)">
       <defs>
        <path id="DejaVuSans-39" d="M 703 97 
L 703 672 
Q 941 559 1184 500 
Q 1428 441 1663 441 
Q 2288 441 2617 861 
Q 2947 1281 2994 2138 
Q 2813 1869 2534 1725 
Q 2256 1581 1919 1581 
Q 1219 1581 811 2004 
Q 403 2428 403 3163 
Q 403 3881 828 4315 
Q 1253 4750 1959 4750 
Q 2769 4750 3195 4129 
Q 3622 3509 3622 2328 
Q 3622 1225 3098 567 
Q 2575 -91 1691 -91 
Q 1453 -91 1209 -44 
Q 966 3 703 97 
z
M 1959 2075 
Q 2384 2075 2632 2365 
Q 2881 2656 2881 3163 
Q 2881 3666 2632 3958 
Q 2384 4250 1959 4250 
Q 1534 4250 1286 3958 
Q 1038 3666 1038 3163 
Q 1038 2656 1286 2365 
Q 1534 2075 1959 2075 
z
" transform="scale(0.015625)"/>
       </defs>
       <use xlink:href="#DejaVuSans-39"/>
      </g>
     </g>
    </g>
    <g id="xtick_4">
     <g id="line2d_7">
      <path d="M 211.392 346.032 
L 211.392 46.656 
" clip-path="url(#p6bf9448cf7)" style="fill: none; stroke-dasharray: 2.96,1.28; stroke-dashoffset: 0; stroke: #b0b0b0; stroke-width: 0.8"/>
     </g>
     <g id="line2d_8">
      <g>
       <use xlink:href="#m544dadbf3b" x="211.392" y="346.032" style="stroke: #000000; stroke-width: 0.8"/>
      </g>
     </g>
     <g id="text_4">
      <!-- 10 -->
      <g transform="translate(205.0295 360.630438) scale(0.1 -0.1)">
       <defs>
        <path id="DejaVuSans-31" d="M 794 531 
L 1825 531 
L 1825 4091 
L 703 3866 
L 703 4441 
L 1819 4666 
L 2450 4666 
L 2450 531 
L 3481 531 
L 3481 0 
L 794 0 
L 794 531 
z
" transform="scale(0.015625)"/>
        <path id="DejaVuSans-30" d="M 2034 4250 
Q 1547 4250 1301 3770 
Q 1056 3291 1056 2328 
Q 1056 1369 1301 889 
Q 1547 409 2034 409 
Q 2525 409 2770 889 
Q 3016 1369 3016 2328 
Q 3016 3291 2770 3770 
Q 2525 4250 2034 4250 
z
M 2034 4750 
Q 2819 4750 3233 4129 
Q 3647 3509 3647 2328 
Q 3647 1150 3233 529 
Q 2819 -91 2034 -91 
Q 1250 -91 836 529 
Q 422 1150 422 2328 
Q 422 3509 836 4129 
Q 1250 4750 2034 4750 
z
" transform="scale(0.015625)"/>
       </defs>
       <use xlink:href="#DejaVuSans-31"/>
       <use xlink:href="#DejaVuSans-30" x="63.623047"/>
      </g>
     </g>
    </g>
    <g id="xtick_5">
     <g id="line2d_9">
      <path d="M 247.104 346.032 
L 247.104 46.656 
" clip-path="url(#p6bf9448cf7)" style="fill: none; stroke-dasharray: 2.96,1.28; stroke-dashoffset: 0; stroke: #b0b0b0; stroke-width: 0.8"/>
     </g>
     <g id="line2d_10">
      <g>
       <use xlink:href="#m544dadbf3b" x="247.104" y="346.032" style="stroke: #000000; stroke-width: 0.8"/>
      </g>
     </g>
     <g id="text_5">
      <!-- 11 -->
      <g transform="translate(240.7415 360.630438) scale(0.1 -0.1)">
       <use xlink:href="#DejaVuSans-31"/>
       <use xlink:href="#DejaVuSans-31" x="63.623047"/>
      </g>
     </g>
    </g>
    <g id="xtick_6">
     <g id="line2d_11">
      <path d="M 282.816 346.032 
L 282.816 46.656 
" clip-path="url(#p6bf9448cf7)" style="fill: none; stroke-dasharray: 2.96,1.28; stroke-dashoffset: 0; stroke: #b0b0b0; stroke-width: 0.8"/>
     </g>
     <g id="line2d_12">
      <g>
       <use xlink:href="#m544dadbf3b" x="282.816" y="346.032" style="stroke: #000000; stroke-width: 0.8"/>
      </g>
     </g>
     <g id="text_6">
      <!-- 12 -->
      <g transform="translate(276.4535 360.630438) scale(0.1 -0.1)">
       <defs>
        <path id="DejaVuSans-32" d="M 1228 531 
L 3431 531 
L 3431 0 
L 469 0 
L 469 531 
Q 828 903 1448 1529 
Q 2069 2156 2228 2338 
Q 2531 2678 2651 2914 
Q 2772 3150 2772 3378 
Q 2772 3750 2511 3984 
Q 2250 4219 1831 4219 
Q 1534 4219 1204 4116 
Q 875 4013 500 3803 
L 500 4441 
Q 881 4594 1212 4672 
Q 1544 4750 1819 4750 
Q 2544 4750 2975 4387 
Q 3406 4025 3406 3419 
Q 3406 3131 3298 2873 
Q 3191 2616 2906 2266 
Q 2828 2175 2409 1742 
Q 1991 1309 1228 531 
z
" transform="scale(0.015625)"/>
       </defs>
       <use xlink:href="#DejaVuSans-31"/>
       <use xlink:href="#DejaVuSans-32" x="63.623047"/>
      </g>
     </g>
    </g>
    <g id="xtick_7">
     <g id="line2d_13">
      <path d="M 318.528 346.032 
L 318.528 46.656 
" clip-path="url(#p6bf9448cf7)" style="fill: none; stroke-dasharray: 2.96,1.28; stroke-dashoffset: 0; stroke: #b0b0b0; stroke-width: 0.8"/>
     </g>
     <g id="line2d_14">
      <g>
       <use xlink:href="#m544dadbf3b" x="318.528" y="346.032" style="stroke: #000000; stroke-width: 0.8"/>
      </g>
     </g>
     <g id="text_7">
      <!-- 13 -->
      <g transform="translate(312.1655 360.630438) scale(0.1 -0.1)">
       <defs>
        <path id="DejaVuSans-33" d="M 2597 2516 
Q 3050 2419 3304 2112 
Q 3559 1806 3559 1356 
Q 3559 666 3084 287 
Q 2609 -91 1734 -91 
Q 1441 -91 1130 -33 
Q 819 25 488 141 
L 488 750 
Q 750 597 1062 519 
Q 1375 441 1716 441 
Q 2309 441 2620 675 
Q 2931 909 2931 1356 
Q 2931 1769 2642 2001 
Q 2353 2234 1838 2234 
L 1294 2234 
L 1294 2753 
L 1863 2753 
Q 2328 2753 2575 2939 
Q 2822 3125 2822 3475 
Q 2822 3834 2567 4026 
Q 2313 4219 1838 4219 
Q 1578 4219 1281 4162 
Q 984 4106 628 3988 
L 628 4550 
Q 988 4650 1302 4700 
Q 1616 4750 1894 4750 
Q 2613 4750 3031 4423 
Q 3450 4097 3450 3541 
Q 3450 3153 3228 2886 
Q 3006 2619 2597 2516 
z
" transform="scale(0.015625)"/>
       </defs>
       <use xlink:href="#DejaVuSans-31"/>
       <use xlink:href="#DejaVuSans-33" x="63.623047"/>
      </g>
     </g>
    </g>
    <g id="xtick_8">
     <g id="line2d_15">
      <path d="M 354.24 346.032 
L 354.24 46.656 
" clip-path="url(#p6bf9448cf7)" style="fill: none; stroke-dasharray: 2.96,1.28; stroke-dashoffset: 0; stroke: #b0b0b0; stroke-width: 0.8"/>
     </g>
     <g id="line2d_16">
      <g>
       <use xlink:href="#m544dadbf3b" x="354.24" y="346.032" style="stroke: #000000; stroke-width: 0.8"/>
      </g>
     </g>
     <g id="text_8">
      <!-- 14 -->
      <g transform="translate(347.8775 360.630438) scale(0.1 -0.1)">
       <defs>
        <path id="DejaVuSans-34" d="M 2419 4116 
L 825 1625 
L 2419 1625 
L 2419 4116 
z
M 2253 4666 
L 3047 4666 
L 3047 1625 
L 3713 1625 
L 3713 1100 
L 3047 1100 
L 3047 0 
L 2419 0 
L 2419 1100 
L 313 1100 
L 313 1709 
L 2253 4666 
z
" transform="scale(0.015625)"/>
       </defs>
       <use xlink:href="#DejaVuSans-31"/>
       <use xlink:href="#DejaVuSans-34" x="63.623047"/>
      </g>
     </g>
    </g>
    <g id="xtick_9">
     <g id="line2d_17">
      <path d="M 389.952 346.032 
L 389.952 46.656 
" clip-path="url(#p6bf9448cf7)" style="fill: none; stroke-dasharray: 2.96,1.28; stroke-dashoffset: 0; stroke: #b0b0b0; stroke-width: 0.8"/>
     </g>
     <g id="line2d_18">
      <g>
       <use xlink:href="#m544dadbf3b" x="389.952" y="346.032" style="stroke: #000000; stroke-width: 0.8"/>
      </g>
     </g>
     <g id="text_9">
      <!-- 15 -->
      <g transform="translate(383.5895 360.630438) scale(0.1 -0.1)">
       <defs>
        <path id="DejaVuSans-35" d="M 691 4666 
L 3169 4666 
L 3169 4134 
L 1269 4134 
L 1269 2991 
Q 1406 3038 1543 3061 
Q 1681 3084 1819 3084 
Q 2600 3084 3056 2656 
Q 3513 2228 3513 1497 
Q 3513 744 3044 326 
Q 2575 -91 1722 -91 
Q 1428 -91 1123 -41 
Q 819 9 494 109 
L 494 744 
Q 775 591 1075 516 
Q 1375 441 1709 441 
Q 2250 441 2565 725 
Q 2881 1009 2881 1497 
Q 2881 1984 2565 2268 
Q 2250 2553 1709 2553 
Q 1456 2553 1204 2497 
Q 953 2441 691 2322 
L 691 4666 
z
" transform="scale(0.015625)"/>
       </defs>
       <use xlink:href="#DejaVuSans-31"/>
       <use xlink:href="#DejaVuSans-35" x="63.623047"/>
      </g>
     </g>
    </g>
    <g id="xtick_10">
     <g id="line2d_19">
      <path d="M 425.664 346.032 
L 425.664 46.656 
" clip-path="url(#p6bf9448cf7)" style="fill: none; stroke-dasharray: 2.96,1.28; stroke-dashoffset: 0; stroke: #b0b0b0; stroke-width: 0.8"/>
     </g>
     <g id="line2d_20">
      <g>
       <use xlink:href="#m544dadbf3b" x="425.664" y="346.032" style="stroke: #000000; stroke-width: 0.8"/>
      </g>
     </g>
     <g id="text_10">
      <!-- 16 -->
      <g transform="translate(419.3015 360.630438) scale(0.1 -0.1)">
       <defs>
        <path id="DejaVuSans-36" d="M 2113 2584 
Q 1688 2584 1439 2293 
Q 1191 2003 1191 1497 
Q 1191 994 1439 701 
Q 1688 409 2113 409 
Q 2538 409 2786 701 
Q 3034 994 3034 1497 
Q 3034 2003 2786 2293 
Q 2538 2584 2113 2584 
z
M 3366 4563 
L 3366 3988 
Q 3128 4100 2886 4159 
Q 2644 4219 2406 4219 
Q 1781 4219 1451 3797 
Q 1122 3375 1075 2522 
Q 1259 2794 1537 2939 
Q 1816 3084 2150 3084 
Q 2853 3084 3261 2657 
Q 3669 2231 3669 1497 
Q 3669 778 3244 343 
Q 2819 -91 2113 -91 
Q 1303 -91 875 529 
Q 447 1150 447 2328 
Q 447 3434 972 4092 
Q 1497 4750 2381 4750 
Q 2619 4750 2861 4703 
Q 3103 4656 3366 4563 
z
" transform="scale(0.015625)"/>
       </defs>
       <use xlink:href="#DejaVuSans-31"/>
       <use xlink:href="#DejaVuSans-36" x="63.623047"/>
      </g>
     </g>
    </g>
    <g id="xtick_11">
     <g id="line2d_21">
      <path d="M 461.376 346.032 
L 461.376 46.656 
" clip-path="url(#p6bf9448cf7)" style="fill: none; stroke-dasharray: 2.96,1.28; stroke-dashoffset: 0; stroke: #b0b0b0; stroke-width: 0.8"/>
     </g>
     <g id="line2d_22">
      <g>
       <use xlink:href="#m544dadbf3b" x="461.376" y="346.032" style="stroke: #000000; stroke-width: 0.8"/>
      </g>
     </g>
     <g id="text_11">
      <!-- 17 -->
      <g transform="translate(455.0135 360.630438) scale(0.1 -0.1)">
       <use xlink:href="#DejaVuSans-31"/>
       <use xlink:href="#DejaVuSans-37" x="63.623047"/>
      </g>
     </g>
    </g>
    <g id="xtick_12">
     <g id="line2d_23">
      <path d="M 497.088 346.032 
L 497.088 46.656 
" clip-path="url(#p6bf9448cf7)" style="fill: none; stroke-dasharray: 2.96,1.28; stroke-dashoffset: 0; stroke: #b0b0b0; stroke-width: 0.8"/>
     </g>
     <g id="line2d_24">
      <g>
       <use xlink:href="#m544dadbf3b" x="497.088" y="346.032" style="stroke: #000000; stroke-width: 0.8"/>
      </g>
     </g>
     <g id="text_12">
      <!-- 18 -->
      <g transform="translate(490.7255 360.630438) scale(0.1 -0.1)">
       <use xlink:href="#DejaVuSans-31"/>
       <use xlink:href="#DejaVuSans-38" x="63.623047"/>
      </g>
     </g>
    </g>
    <g id="xtick_13">
     <g id="line2d_25">
      <path d="M 532.8 346.032 
L 532.8 46.656 
" clip-path="url(#p6bf9448cf7)" style="fill: none; stroke-dasharray: 2.96,1.28; stroke-dashoffset: 0; stroke: #b0b0b0; stroke-width: 0.8"/>
     </g>
     <g id="line2d_26">
      <g>
       <use xlink:href="#m544dadbf3b" x="532.8" y="346.032" style="stroke: #000000; stroke-width: 0.8"/>
      </g>
     </g>
     <g id="text_13">
      <!-- 19 -->
      <g transform="translate(526.4375 360.630438) scale(0.1 -0.1)">
       <use xlink:href="#DejaVuSans-31"/>
       <use xlink:href="#DejaVuSans-39" x="63.623047"/>
      </g>
     </g>
    </g>
    <g id="xtick_14">
     <g id="line2d_27">
      <path d="M 568.512 346.032 
L 568.512 46.656 
" clip-path="url(#p6bf9448cf7)" style="fill: none; stroke-dasharray: 2.96,1.28; stroke-dashoffset: 0; stroke: #b0b0b0; stroke-width: 0.8"/>
     </g>
     <g id="line2d_28">
      <g>
       <use xlink:href="#m544dadbf3b" x="568.512" y="346.032" style="stroke: #000000; stroke-width: 0.8"/>
      </g>
     </g>
     <g id="text_14">
      <!-- 20 -->
      <g transform="translate(562.1495 360.630438) scale(0.1 -0.1)">
       <use xlink:href="#DejaVuSans-32"/>
       <use xlink:href="#DejaVuSans-30" x="63.623047"/>
      </g>
     </g>
    </g>
    <g id="xtick_15">
     <g id="line2d_29">
      <path d="M 604.224 346.032 
L 604.224 46.656 
" clip-path="url(#p6bf9448cf7)" style="fill: none; stroke-dasharray: 2.96,1.28; stroke-dashoffset: 0; stroke: #b0b0b0; stroke-width: 0.8"/>
     </g>
     <g id="line2d_30">
      <g>
       <use xlink:href="#m544dadbf3b" x="604.224" y="346.032" style="stroke: #000000; stroke-width: 0.8"/>
      </g>
     </g>
     <g id="text_15">
      <!-- 21 -->
      <g transform="translate(597.8615 360.630438) scale(0.1 -0.1)">
       <use xlink:href="#DejaVuSans-32"/>
       <use xlink:href="#DejaVuSans-31" x="63.623047"/>
      </g>
     </g>
    </g>
    <g id="text_16">
     <!-- log_2 n -->
     <g transform="translate(336.178281 374.308562) scale(0.1 -0.1)">
      <defs>
       <path id="DejaVuSans-6c" d="M 603 4863 
L 1178 4863 
L 1178 0 
L 603 0 
L 603 4863 
z
" transform="scale(0.015625)"/>
       <path id="DejaVuSans-6f" d="M 1959 3097 
Q 1497 3097 1228 2736 
Q 959 2375 959 1747 
Q 959 1119 1226 758 
Q 1494 397 1959 397 
Q 2419 397 2687 759 
Q 2956 1122 2956 1747 
Q 2956 2369 2687 2733 
Q 2419 3097 1959 3097 
z
M 1959 3584 
Q 2709 3584 3137 3096 
Q 3566 2609 3566 1747 
Q 3566 888 3137 398 
Q 2709 -91 1959 -91 
Q 1206 -91 779 398 
Q 353 888 353 1747 
Q 353 2609 779 3096 
Q 1206 3584 1959 3584 
z
" transform="scale(0.015625)"/>
       <path id="DejaVuSans-67" d="M 2906 1791 
Q 2906 2416 2648 2759 
Q 2391 3103 1925 3103 
Q 1463 3103 1205 2759 
Q 947 2416 947 1791 
Q 947 1169 1205 825 
Q 1463 481 1925 481 
Q 2391 481 2648 825 
Q 2906 1169 2906 1791 
z
M 3481 434 
Q 3481 -459 3084 -895 
Q 2688 -1331 1869 -1331 
Q 1566 -1331 1297 -1286 
Q 1028 -1241 775 -1147 
L 775 -588 
Q 1028 -725 1275 -790 
Q 1522 -856 1778 -856 
Q 2344 -856 2625 -561 
Q 2906 -266 2906 331 
L 2906 616 
Q 2728 306 2450 153 
Q 2172 0 1784 0 
Q 1141 0 747 490 
Q 353 981 353 1791 
Q 353 2603 747 3093 
Q 1141 3584 1784 3584 
Q 2172 3584 2450 3431 
Q 2728 3278 2906 2969 
L 2906 3500 
L 3481 3500 
L 3481 434 
z
" transform="scale(0.015625)"/>
       <path id="DejaVuSans-5f" d="M 3263 -1063 
L 3263 -1509 
L -63 -1509 
L -63 -1063 
L 3263 -1063 
z
" transform="scale(0.015625)"/>
       <path id="DejaVuSans-20" transform="scale(0.015625)"/>
       <path id="DejaVuSans-6e" d="M 3513 2113 
L 3513 0 
L 2938 0 
L 2938 2094 
Q 2938 2591 2744 2837 
Q 2550 3084 2163 3084 
Q 1697 3084 1428 2787 
Q 1159 2491 1159 1978 
L 1159 0 
L 581 0 
L 581 3500 
L 1159 3500 
L 1159 2956 
Q 1366 3272 1645 3428 
Q 1925 3584 2291 3584 
Q 2894 3584 3203 3211 
Q 3513 2838 3513 2113 
z
" transform="scale(0.015625)"/>
      </defs>
      <use xlink:href="#DejaVuSans-6c"/>
      <use xlink:href="#DejaVuSans-6f" x="27.783203"/>
      <use xlink:href="#DejaVuSans-67" x="88.964844"/>
      <use xlink:href="#DejaVuSans-5f" x="152.441406"/>
      <use xlink:href="#DejaVuSans-32" x="202.441406"/>
      <use xlink:href="#DejaVuSans-20" x="266.064453"/>
      <use xlink:href="#DejaVuSans-6e" x="297.851562"/>
     </g>
    </g>
   </g>
   <g id="matplotlib.axis_2">
    <g id="ytick_1">
     <g id="line2d_31">
      <path d="M 86.4 337.226824 
L 622.08 337.226824 
" clip-path="url(#p6bf9448cf7)" style="fill: none; stroke-dasharray: 2.96,1.28; stroke-dashoffset: 0; stroke: #b0b0b0; stroke-width: 0.8"/>
     </g>
     <g id="line2d_32">
      <defs>
       <path id="m893d5f5ac5" d="M 0 0 
L -3.5 0 
" style="stroke: #000000; stroke-width: 0.8"/>
      </defs>
      <g>
       <use xlink:href="#m893d5f5ac5" x="86.4" y="337.226824" style="stroke: #000000; stroke-width: 0.8"/>
      </g>
     </g>
     <g id="text_17">
      <!-- 0 -->
      <g transform="translate(73.0375 341.026042) scale(0.1 -0.1)">
       <use xlink:href="#DejaVuSans-30"/>
      </g>
     </g>
    </g>
    <g id="ytick_2">
     <g id="line2d_33">
      <path d="M 86.4 302.006118 
L 622.08 302.006118 
" clip-path="url(#p6bf9448cf7)" style="fill: none; stroke-dasharray: 2.96,1.28; stroke-dashoffset: 0; stroke: #b0b0b0; stroke-width: 0.8"/>
     </g>
     <g id="line2d_34">
      <g>
       <use xlink:href="#m893d5f5ac5" x="86.4" y="302.006118" style="stroke: #000000; stroke-width: 0.8"/>
      </g>
     </g>
     <g id="text_18">
      <!-- 2 -->
      <g transform="translate(73.0375 305.805336) scale(0.1 -0.1)">
       <use xlink:href="#DejaVuSans-32"/>
      </g>
     </g>
    </g>
    <g id="ytick_3">
     <g id="line2d_35">
      <path d="M 86.4 266.785412 
L 622.08 266.785412 
" clip-path="url(#p6bf9448cf7)" style="fill: none; stroke-dasharray: 2.96,1.28; stroke-dashoffset: 0; stroke: #b0b0b0; stroke-width: 0.8"/>
     </g>
     <g id="line2d_36">
      <g>
       <use xlink:href="#m893d5f5ac5" x="86.4" y="266.785412" style="stroke: #000000; stroke-width: 0.8"/>
      </g>
     </g>
     <g id="text_19">
      <!-- 4 -->
      <g transform="translate(73.0375 270.584631) scale(0.1 -0.1)">
       <use xlink:href="#DejaVuSans-34"/>
      </g>
     </g>
    </g>
    <g id="ytick_4">
     <g id="line2d_37">
      <path d="M 86.4 231.564706 
L 622.08 231.564706 
" clip-path="url(#p6bf9448cf7)" style="fill: none; stroke-dasharray: 2.96,1.28; stroke-dashoffset: 0; stroke: #b0b0b0; stroke-width: 0.8"/>
     </g>
     <g id="line2d_38">
      <g>
       <use xlink:href="#m893d5f5ac5" x="86.4" y="231.564706" style="stroke: #000000; stroke-width: 0.8"/>
      </g>
     </g>
     <g id="text_20">
      <!-- 6 -->
      <g transform="translate(73.0375 235.363925) scale(0.1 -0.1)">
       <use xlink:href="#DejaVuSans-36"/>
      </g>
     </g>
    </g>
    <g id="ytick_5">
     <g id="line2d_39">
      <path d="M 86.4 196.344 
L 622.08 196.344 
" clip-path="url(#p6bf9448cf7)" style="fill: none; stroke-dasharray: 2.96,1.28; stroke-dashoffset: 0; stroke: #b0b0b0; stroke-width: 0.8"/>
     </g>
     <g id="line2d_40">
      <g>
       <use xlink:href="#m893d5f5ac5" x="86.4" y="196.344" style="stroke: #000000; stroke-width: 0.8"/>
      </g>
     </g>
     <g id="text_21">
      <!-- 8 -->
      <g transform="translate(73.0375 200.143219) scale(0.1 -0.1)">
       <use xlink:href="#DejaVuSans-38"/>
      </g>
     </g>
    </g>
    <g id="ytick_6">
     <g id="line2d_41">
      <path d="M 86.4 161.123294 
L 622.08 161.123294 
" clip-path="url(#p6bf9448cf7)" style="fill: none; stroke-dasharray: 2.96,1.28; stroke-dashoffset: 0; stroke: #b0b0b0; stroke-width: 0.8"/>
     </g>
     <g id="line2d_42">
      <g>
       <use xlink:href="#m893d5f5ac5" x="86.4" y="161.123294" style="stroke: #000000; stroke-width: 0.8"/>
      </g>
     </g>
     <g id="text_22">
      <!-- 10 -->
      <g transform="translate(66.675 164.922513) scale(0.1 -0.1)">
       <use xlink:href="#DejaVuSans-31"/>
       <use xlink:href="#DejaVuSans-30" x="63.623047"/>
      </g>
     </g>
    </g>
    <g id="ytick_7">
     <g id="line2d_43">
      <path d="M 86.4 125.902588 
L 622.08 125.902588 
" clip-path="url(#p6bf9448cf7)" style="fill: none; stroke-dasharray: 2.96,1.28; stroke-dashoffset: 0; stroke: #b0b0b0; stroke-width: 0.8"/>
     </g>
     <g id="line2d_44">
      <g>
       <use xlink:href="#m893d5f5ac5" x="86.4" y="125.902588" style="stroke: #000000; stroke-width: 0.8"/>
      </g>
     </g>
     <g id="text_23">
      <!-- 12 -->
      <g transform="translate(66.675 129.701807) scale(0.1 -0.1)">
       <use xlink:href="#DejaVuSans-31"/>
       <use xlink:href="#DejaVuSans-32" x="63.623047"/>
      </g>
     </g>
    </g>
    <g id="ytick_8">
     <g id="line2d_45">
      <path d="M 86.4 90.681882 
L 622.08 90.681882 
" clip-path="url(#p6bf9448cf7)" style="fill: none; stroke-dasharray: 2.96,1.28; stroke-dashoffset: 0; stroke: #b0b0b0; stroke-width: 0.8"/>
     </g>
     <g id="line2d_46">
      <g>
       <use xlink:href="#m893d5f5ac5" x="86.4" y="90.681882" style="stroke: #000000; stroke-width: 0.8"/>
      </g>
     </g>
     <g id="text_24">
      <!-- 14 -->
      <g transform="translate(66.675 94.481101) scale(0.1 -0.1)">
       <use xlink:href="#DejaVuSans-31"/>
       <use xlink:href="#DejaVuSans-34" x="63.623047"/>
      </g>
     </g>
    </g>
    <g id="ytick_9">
     <g id="line2d_47">
      <path d="M 86.4 55.461176 
L 622.08 55.461176 
" clip-path="url(#p6bf9448cf7)" style="fill: none; stroke-dasharray: 2.96,1.28; stroke-dashoffset: 0; stroke: #b0b0b0; stroke-width: 0.8"/>
     </g>
     <g id="line2d_48">
      <g>
       <use xlink:href="#m893d5f5ac5" x="86.4" y="55.461176" style="stroke: #000000; stroke-width: 0.8"/>
      </g>
     </g>
     <g id="text_25">
      <!-- 16 -->
      <g transform="translate(66.675 59.260395) scale(0.1 -0.1)">
       <use xlink:href="#DejaVuSans-31"/>
       <use xlink:href="#DejaVuSans-36" x="63.623047"/>
      </g>
     </g>
    </g>
    <g id="text_26">
     <!-- elements per ns -->
     <g transform="translate(60.595312 236.824469) rotate(-90) scale(0.1 -0.1)">
      <defs>
       <path id="DejaVuSans-65" d="M 3597 1894 
L 3597 1613 
L 953 1613 
Q 991 1019 1311 708 
Q 1631 397 2203 397 
Q 2534 397 2845 478 
Q 3156 559 3463 722 
L 3463 178 
Q 3153 47 2828 -22 
Q 2503 -91 2169 -91 
Q 1331 -91 842 396 
Q 353 884 353 1716 
Q 353 2575 817 3079 
Q 1281 3584 2069 3584 
Q 2775 3584 3186 3129 
Q 3597 2675 3597 1894 
z
M 3022 2063 
Q 3016 2534 2758 2815 
Q 2500 3097 2075 3097 
Q 1594 3097 1305 2825 
Q 1016 2553 972 2059 
L 3022 2063 
z
" transform="scale(0.015625)"/>
       <path id="DejaVuSans-6d" d="M 3328 2828 
Q 3544 3216 3844 3400 
Q 4144 3584 4550 3584 
Q 5097 3584 5394 3201 
Q 5691 2819 5691 2113 
L 5691 0 
L 5113 0 
L 5113 2094 
Q 5113 2597 4934 2840 
Q 4756 3084 4391 3084 
Q 3944 3084 3684 2787 
Q 3425 2491 3425 1978 
L 3425 0 
L 2847 0 
L 2847 2094 
Q 2847 2600 2669 2842 
Q 2491 3084 2119 3084 
Q 1678 3084 1418 2786 
Q 1159 2488 1159 1978 
L 1159 0 
L 581 0 
L 581 3500 
L 1159 3500 
L 1159 2956 
Q 1356 3278 1631 3431 
Q 1906 3584 2284 3584 
Q 2666 3584 2933 3390 
Q 3200 3197 3328 2828 
z
" transform="scale(0.015625)"/>
       <path id="DejaVuSans-74" d="M 1172 4494 
L 1172 3500 
L 2356 3500 
L 2356 3053 
L 1172 3053 
L 1172 1153 
Q 1172 725 1289 603 
Q 1406 481 1766 481 
L 2356 481 
L 2356 0 
L 1766 0 
Q 1100 0 847 248 
Q 594 497 594 1153 
L 594 3053 
L 172 3053 
L 172 3500 
L 594 3500 
L 594 4494 
L 1172 4494 
z
" transform="scale(0.015625)"/>
       <path id="DejaVuSans-73" d="M 2834 3397 
L 2834 2853 
Q 2591 2978 2328 3040 
Q 2066 3103 1784 3103 
Q 1356 3103 1142 2972 
Q 928 2841 928 2578 
Q 928 2378 1081 2264 
Q 1234 2150 1697 2047 
L 1894 2003 
Q 2506 1872 2764 1633 
Q 3022 1394 3022 966 
Q 3022 478 2636 193 
Q 2250 -91 1575 -91 
Q 1294 -91 989 -36 
Q 684 19 347 128 
L 347 722 
Q 666 556 975 473 
Q 1284 391 1588 391 
Q 1994 391 2212 530 
Q 2431 669 2431 922 
Q 2431 1156 2273 1281 
Q 2116 1406 1581 1522 
L 1381 1569 
Q 847 1681 609 1914 
Q 372 2147 372 2553 
Q 372 3047 722 3315 
Q 1072 3584 1716 3584 
Q 2034 3584 2315 3537 
Q 2597 3491 2834 3397 
z
" transform="scale(0.015625)"/>
       <path id="DejaVuSans-70" d="M 1159 525 
L 1159 -1331 
L 581 -1331 
L 581 3500 
L 1159 3500 
L 1159 2969 
Q 1341 3281 1617 3432 
Q 1894 3584 2278 3584 
Q 2916 3584 3314 3078 
Q 3713 2572 3713 1747 
Q 3713 922 3314 415 
Q 2916 -91 2278 -91 
Q 1894 -91 1617 61 
Q 1341 213 1159 525 
z
M 3116 1747 
Q 3116 2381 2855 2742 
Q 2594 3103 2138 3103 
Q 1681 3103 1420 2742 
Q 1159 2381 1159 1747 
Q 1159 1113 1420 752 
Q 1681 391 2138 391 
Q 2594 391 2855 752 
Q 3116 1113 3116 1747 
z
" transform="scale(0.015625)"/>
       <path id="DejaVuSans-72" d="M 2631 2963 
Q 2534 3019 2420 3045 
Q 2306 3072 2169 3072 
Q 1681 3072 1420 2755 
Q 1159 2438 1159 1844 
L 1159 0 
L 581 0 
L 581 3500 
L 1159 3500 
L 1159 2956 
Q 1341 3275 1631 3429 
Q 1922 3584 2338 3584 
Q 2397 3584 2469 3576 
Q 2541 3569 2628 3553 
L 2631 2963 
z
" transform="scale(0.015625)"/>
      </defs>
      <use xlink:href="#DejaVuSans-65"/>
      <use xlink:href="#DejaVuSans-6c" x="61.523438"/>
      <use xlink:href="#DejaVuSans-65" x="89.306641"/>
      <use xlink:href="#DejaVuSans-6d" x="150.830078"/>
      <use xlink:href="#DejaVuSans-65" x="248.242188"/>
      <use xlink:href="#DejaVuSans-6e" x="309.765625"/>
      <use xlink:href="#DejaVuSans-74" x="373.144531"/>
      <use xlink:href="#DejaVuSans-73" x="412.353516"/>
      <use xlink:href="#DejaVuSans-20" x="464.453125"/>
      <use xlink:href="#DejaVuSans-70" x="496.240234"/>
      <use xlink:href="#DejaVuSans-65" x="559.716797"/>
      <use xlink:href="#DejaVuSans-72" x="621.240234"/>
      <use xlink:href="#DejaVuSans-20" x="662.353516"/>
      <use xlink:href="#DejaVuSans-6e" x="694.140625"/>
      <use xlink:href="#DejaVuSans-73" x="757.519531"/>
     </g>
    </g>
   </g>
   <g id="line2d_49">
    <path d="M 318.528 346.032 
L 318.528 46.656 
" clip-path="url(#p6bf9448cf7)" style="fill: none; stroke-dasharray: 5.55,2.4; stroke-dashoffset: 0; stroke: #1f77b4; stroke-width: 1.5"/>
   </g>
   <g id="line2d_50">
    <path d="M 497.088 346.032 
L 497.088 46.656 
" clip-path="url(#p6bf9448cf7)" style="fill: none; stroke-dasharray: 5.55,2.4; stroke-dashoffset: 0; stroke: #1f77b4; stroke-width: 1.5"/>
   </g>
   <g id="line2d_51">
    <path d="M 604.224 346.032 
L 604.224 46.656 
" clip-path="url(#p6bf9448cf7)" style="fill: none; stroke-dasharray: 5.55,2.4; stroke-dashoffset: 0; stroke: #1f77b4; stroke-width: 1.5"/>
   </g>
   <g id="line2d_52">
    <path d="M 104.256 312.805761 
L 110.324362 313.69913 
L 116.073704 317.241122 
L 122.106496 317.539205 
L 128.016476 317.666794 
L 134.000168 317.986647 
L 139.968 318.353773 
L 145.857156 318.920268 
L 151.94546 319.305997 
L 157.818496 320.551939 
L 163.728476 321.281019 
L 169.712168 321.958735 
L 175.68 322.359782 
L 181.658837 322.827902 
L 187.577644 323.150243 
L 193.530496 323.446913 
L 199.503887 323.72312 
L 205.424168 323.953528 
L 211.392 324.13014 
L 217.326016 324.326508 
L 223.289644 324.462586 
L 229.242496 324.572955 
L 235.184192 324.717272 
L 241.164407 324.810973 
L 247.104 324.874856 
L 253.060431 324.962964 
L 259.001644 325.027672 
L 264.954496 325.088173 
L 270.912042 325.137185 
L 276.862289 325.220178 
L 282.816 325.221318 
L 288.772431 325.258301 
L 294.723628 325.298663 
L 300.675391 325.322409 
L 306.624042 325.339218 
L 312.574289 325.368119 
L 318.528 325.390093 
L 324.478828 325.41319 
L 330.430636 325.424931 
L 336.382944 325.432376 
L 342.336042 325.450353 
L 348.286289 325.455781 
L 354.24 325.470301 
L 360.190828 325.478088 
L 366.145132 325.478128 
L 372.094944 325.49067 
L 378.048042 325.506539 
L 384.000054 325.499299 
L 389.952 325.510386 
L 395.904229 325.515869 
L 401.855884 325.515122 
L 407.808056 325.522125 
L 413.760042 325.525522 
L 419.712054 325.52938 
L 425.664 325.527897 
L 431.616229 325.531929 
L 437.567884 325.534159 
L 443.520056 325.533925 
L 449.472042 325.537253 
L 455.424054 325.537374 
L 461.376 325.541415 
L 467.327879 325.545189 
L 473.279884 325.54246 
L 479.232056 325.555456 
L 485.184042 325.557439 
L 491.136054 325.553843 
L 497.088 325.555729 
L 503.040054 325.570413 
L 508.99204 325.576566 
L 514.944056 325.577225 
L 520.896042 325.595544 
L 526.848054 325.604865 
L 532.8 325.590918 
L 538.751967 325.595719 
L 544.703962 325.604533 
L 550.655986 325.603831 
L 556.60798 325.64111 
L 562.559999 325.647479 
L 568.512 325.623862 
L 574.46401 325.643269 
L 580.416001 325.654188 
L 586.367986 325.672202 
L 592.320011 325.644979 
L 598.271999 325.653168 
L 604.224 325.664379 
" clip-path="url(#p6bf9448cf7)" style="fill: none; stroke: #1f77b4; stroke-width: 1.5; stroke-linecap: square"/>
   </g>
   <g id="line2d_53">
    <path d="M 104.256 307.870678 
L 110.324362 305.536936 
L 116.073704 302.812565 
L 122.106496 299.983177 
L 128.016476 297.223988 
L 134.000168 294.941245 
L 139.968 292.480852 
L 145.857156 289.839082 
L 151.94546 286.997611 
L 157.818496 283.781399 
L 163.728476 281.395028 
L 169.712168 278.592272 
L 175.68 276.638856 
L 181.658837 274.331053 
L 187.577644 271.691298 
L 193.530496 269.54607 
L 199.503887 266.744895 
L 205.424168 265.581951 
L 211.392 263.792619 
L 217.326016 261.387473 
L 223.289644 260.035078 
L 229.242496 258.526003 
L 235.184192 257.1821 
L 241.164407 256.159607 
L 247.104 254.923637 
L 253.060431 253.559178 
L 259.001644 252.757237 
L 264.954496 251.919034 
L 270.912042 251.08939 
L 276.862289 250.353811 
L 282.816 249.65635 
L 288.772431 249.0052 
L 294.723628 248.419158 
L 300.675391 247.996809 
L 306.624042 247.542695 
L 312.574289 247.158285 
L 318.528 246.809404 
L 324.478828 246.393322 
L 330.430636 246.176792 
L 336.382944 245.969993 
L 342.336042 245.627853 
L 348.286289 245.456417 
L 354.24 245.324164 
L 360.190828 245.103524 
L 366.145132 245.019063 
L 372.094944 244.872422 
L 378.048042 244.6877 
L 384.000054 244.621228 
L 389.952 244.564828 
L 395.904229 244.429924 
L 401.855884 244.370402 
L 407.808056 244.28986 
L 413.760042 244.321274 
L 419.712054 244.161974 
L 425.664 244.174447 
L 431.616229 244.1294 
L 437.567884 244.154479 
L 443.520056 244.026145 
L 449.472042 244.019972 
L 455.424054 243.983067 
L 461.376 243.953899 
L 467.327879 244.109055 
L 473.279884 243.997004 
L 479.232056 244.110383 
L 485.184042 245.209605 
L 491.136054 245.34327 
L 497.088 246.159443 
L 503.040054 246.665492 
L 508.99204 247.199989 
L 514.944056 248.104956 
L 520.896042 248.300364 
L 526.848054 249.283713 
L 532.8 249.547464 
L 538.751967 249.834154 
L 544.703962 250.40263 
L 550.655986 250.697577 
L 556.60798 251.206072 
L 562.559999 250.726194 
L 568.512 251.831993 
L 574.46401 251.325435 
L 580.416001 250.888411 
L 586.367986 252.307486 
L 592.320011 252.57735 
L 598.271999 252.701548 
L 604.224 252.344323 
" clip-path="url(#p6bf9448cf7)" style="fill: none; stroke: #ff7f0e; stroke-width: 1.5; stroke-linecap: square"/>
   </g>
   <g id="line2d_54">
    <path d="M 104.256 308.121205 
L 110.324362 306.453652 
L 116.073704 303.35269 
L 122.106496 301.318257 
L 128.016476 297.885696 
L 134.000168 295.83753 
L 139.968 293.335335 
L 145.857156 290.580863 
L 151.94546 287.429961 
L 157.818496 284.426691 
L 163.728476 282.569599 
L 169.712168 279.370672 
L 175.68 277.609104 
L 181.658837 275.288043 
L 187.577644 272.36269 
L 193.530496 270.551384 
L 199.503887 267.163181 
L 205.424168 266.494757 
L 211.392 264.346322 
L 217.326016 261.656754 
L 223.289644 260.440479 
L 229.242496 259.064672 
L 235.184192 257.845197 
L 241.164407 256.528476 
L 247.104 255.382223 
L 253.060431 254.07641 
L 259.001644 253.255953 
L 264.954496 252.450967 
L 270.912042 251.507575 
L 276.862289 250.638713 
L 282.816 249.980668 
L 288.772431 249.316178 
L 294.723628 248.565571 
L 300.675391 248.240553 
L 306.624042 247.663846 
L 312.574289 247.329804 
L 318.528 246.986412 
L 324.478828 246.485673 
L 330.430636 246.305181 
L 336.382944 246.065367 
L 342.336042 245.67474 
L 348.286289 245.527531 
L 354.24 245.387339 
L 360.190828 245.186471 
L 366.145132 245.012856 
L 372.094944 244.918993 
L 378.048042 244.798532 
L 384.000054 244.6226 
L 389.952 244.541066 
L 395.904229 244.367147 
L 401.855884 244.350309 
L 407.808056 244.317865 
L 413.760042 244.265221 
L 419.712054 244.200559 
L 425.664 244.199967 
L 431.616229 244.095287 
L 437.567884 244.145789 
L 443.520056 244.068855 
L 449.472042 244.066801 
L 455.424054 244.003675 
L 461.376 243.992602 
L 467.327879 243.985567 
L 473.279884 244.012382 
L 479.232056 245.221113 
L 485.184042 244.523683 
L 491.136054 246.124873 
L 497.088 246.6973 
L 503.040054 246.477682 
L 508.99204 247.337457 
L 514.944056 247.823778 
L 520.896042 248.646483 
L 526.848054 249.214924 
L 532.8 249.690694 
L 538.751967 250.106611 
L 544.703962 250.084421 
L 550.655986 250.890589 
L 556.60798 250.763591 
L 562.559999 251.438487 
L 568.512 251.481987 
L 574.46401 252.235865 
L 580.416001 251.583268 
L 586.367986 251.832364 
L 592.320011 252.567227 
L 598.271999 252.45232 
L 604.224 253.264846 
" clip-path="url(#p6bf9448cf7)" style="fill: none; stroke: #2ca02c; stroke-width: 1.5; stroke-linecap: square"/>
   </g>
   <g id="line2d_55">
    <path d="M 104.256 294.53747 
L 110.324362 289.537375 
L 116.073704 283.315879 
L 122.106496 276.568273 
L 128.016476 273.481776 
L 134.000168 265.052113 
L 139.968 260.524404 
L 145.857156 251.580911 
L 151.94546 247.344113 
L 157.818496 236.698454 
L 163.728476 228.792338 
L 169.712168 220.803896 
L 175.68 211.590938 
L 181.658837 201.983099 
L 187.577644 192.050059 
L 193.530496 180.452686 
L 199.503887 167.299117 
L 205.424168 158.601364 
L 211.392 150.341412 
L 217.326016 134.593593 
L 223.289644 133.936938 
L 229.242496 125.373416 
L 235.184192 128.407664 
L 241.164407 131.792289 
L 247.104 89.002781 
L 253.060431 121.332886 
L 259.001644 120.718964 
L 264.954496 69.38981 
L 270.912042 122.193481 
L 276.862289 121.394267 
L 282.816 67.460368 
L 288.772431 118.660048 
L 294.723628 118.766767 
L 300.675391 116.748709 
L 306.624042 115.928104 
L 312.574289 119.589406 
L 318.528 62.793241 
L 324.478828 120.71639 
L 330.430636 120.613755 
L 336.382944 123.748371 
L 342.336042 126.3393 
L 348.286289 125.353934 
L 354.24 94.566703 
L 360.190828 145.439996 
L 366.145132 122.00501 
L 372.094944 122.963722 
L 378.048042 120.937886 
L 384.000054 120.499217 
L 389.952 94.569577 
L 395.904229 118.772547 
L 401.855884 118.713871 
L 407.808056 117.557191 
L 413.760042 66.044228 
L 419.712054 117.318844 
L 425.664 83.081757 
L 431.616229 116.965391 
L 437.567884 115.966076 
L 443.520056 115.759406 
L 449.472042 80.504851 
L 455.424054 115.902893 
L 461.376 80.622199 
L 467.327879 114.78656 
L 473.279884 114.905515 
L 479.232056 115.178367 
L 485.184042 117.156996 
L 491.136054 174.277853 
L 497.088 184.334358 
L 503.040054 194.797014 
L 508.99204 203.26059 
L 514.944056 208.904854 
L 520.896042 211.232772 
L 526.848054 214.641092 
L 532.8 217.61323 
L 538.751967 219.339699 
L 544.703962 221.47926 
L 550.655986 223.25059 
L 556.60798 223.545109 
L 562.559999 225.054895 
L 568.512 228.124455 
L 574.46401 228.079582 
L 580.416001 229.787411 
L 586.367986 229.323191 
L 592.320011 232.118114 
L 598.271999 231.142436 
L 604.224 232.038454 
" clip-path="url(#p6bf9448cf7)" style="fill: none; stroke: #d62728; stroke-width: 1.5; stroke-linecap: square"/>
   </g>
   <g id="line2d_56">
    <path d="M 104.256 294.231121 
L 110.324362 289.529682 
L 116.073704 283.487452 
L 122.106496 276.167054 
L 128.016476 273.924641 
L 134.000168 265.053509 
L 139.968 260.872562 
L 145.857156 252.064225 
L 151.94546 248.100206 
L 157.818496 237.537322 
L 163.728476 228.845889 
L 169.712168 220.107953 
L 175.68 211.732076 
L 181.658837 204.52408 
L 187.577644 193.193589 
L 193.530496 184.58142 
L 199.503887 167.52295 
L 205.424168 163.561648 
L 211.392 172.11644 
L 217.326016 134.262677 
L 223.289644 164.2629 
L 229.242496 159.568782 
L 235.184192 164.899399 
L 241.164407 157.829817 
L 247.104 167.57835 
L 253.060431 154.838871 
L 259.001644 158.538621 
L 264.954496 154.621145 
L 270.912042 153.752332 
L 276.862289 156.683947 
L 282.816 157.754782 
L 288.772431 153.66405 
L 294.723628 156.011597 
L 300.675391 155.257997 
L 306.624042 152.701998 
L 312.574289 153.694079 
L 318.528 153.271268 
L 324.478828 154.502368 
L 330.430636 154.527678 
L 336.382944 156.153876 
L 342.336042 159.101285 
L 348.286289 158.2669 
L 354.24 170.668513 
L 360.190828 170.075757 
L 366.145132 156.596627 
L 372.094944 156.022104 
L 378.048042 155.455123 
L 384.000054 154.528419 
L 389.952 154.565757 
L 395.904229 119.432633 
L 401.855884 153.813731 
L 407.808056 153.100249 
L 413.760042 153.294394 
L 419.712054 152.746237 
L 425.664 152.381634 
L 431.616229 152.150751 
L 437.567884 151.98046 
L 443.520056 151.875009 
L 449.472042 152.004691 
L 455.424054 151.693133 
L 461.376 151.834889 
L 467.327879 154.264796 
L 473.279884 153.775219 
L 479.232056 152.760229 
L 485.184042 162.059068 
L 491.136054 170.734083 
L 497.088 185.951301 
L 503.040054 202.171477 
L 508.99204 207.638399 
L 514.944056 210.561409 
L 520.896042 214.318114 
L 526.848054 216.336162 
L 532.8 220.28722 
L 538.751967 219.815726 
L 544.703962 222.78878 
L 550.655986 224.365497 
L 556.60798 224.976347 
L 562.559999 226.454936 
L 568.512 227.982146 
L 574.46401 227.931551 
L 580.416001 229.147848 
L 586.367986 230.659211 
L 592.320011 232.49563 
L 598.271999 227.939498 
L 604.224 227.29692 
" clip-path="url(#p6bf9448cf7)" style="fill: none; stroke: #9467bd; stroke-width: 1.5; stroke-linecap: square"/>
   </g>
   <g id="line2d_57">
    <path d="M 104.256 310.655036 
L 110.324362 307.613946 
L 116.073704 304.71064 
L 122.106496 300.86185 
L 128.016476 296.944915 
L 134.000168 292.51913 
L 139.968 283.365342 
L 145.857156 277.002499 
L 151.94546 269.68874 
L 157.818496 263.515383 
L 163.728476 257.125446 
L 169.712168 249.542973 
L 175.68 241.947548 
L 181.658837 235.727345 
L 187.577644 231.094885 
L 193.530496 224.48879 
L 199.503887 215.884969 
L 205.424168 198.586851 
L 211.392 197.085223 
L 217.326016 192.39278 
L 223.289644 190.439288 
L 229.242496 183.945661 
L 235.184192 181.547427 
L 241.164407 183.885783 
L 247.104 148.343197 
L 253.060431 168.743884 
L 259.001644 165.486722 
L 264.954496 131.420953 
L 270.912042 156.976059 
L 276.862289 146.990635 
L 282.816 112.521521 
L 288.772431 143.704311 
L 294.723628 142.682311 
L 300.675391 140.626816 
L 306.624042 136.751292 
L 312.574289 136.443693 
L 318.528 87.947523 
L 324.478828 128.66524 
L 330.430636 130.034209 
L 336.382944 130.930078 
L 342.336042 133.532489 
L 348.286289 131.648342 
L 354.24 101.223565 
L 360.190828 149.269374 
L 366.145132 128.545533 
L 372.094944 127.72577 
L 378.048042 126.965143 
L 384.000054 125.248457 
L 389.952 97.850448 
L 395.904229 122.867751 
L 401.855884 121.960493 
L 407.808056 120.972501 
L 413.760042 129.779163 
L 419.712054 119.843979 
L 425.664 91.237184 
L 431.616229 118.468725 
L 437.567884 118.020725 
L 443.520056 117.917221 
L 449.472042 65.34974 
L 455.424054 117.082665 
L 461.376 80.36559 
L 467.327879 116.283397 
L 473.279884 119.325592 
L 479.232056 142.962342 
L 485.184042 146.098123 
L 491.136054 179.85963 
L 497.088 179.1627 
L 503.040054 197.242883 
L 508.99204 202.75207 
L 514.944056 207.30825 
L 520.896042 211.137482 
L 526.848054 212.869314 
L 532.8 216.408707 
L 538.751967 219.497021 
L 544.703962 220.90803 
L 550.655986 221.973803 
L 556.60798 223.468763 
L 562.559999 224.428197 
L 568.512 227.095138 
L 574.46401 228.905603 
L 580.416001 228.418454 
L 586.367986 225.692727 
L 592.320011 232.036206 
L 598.271999 220.268274 
L 604.224 232.618667 
" clip-path="url(#p6bf9448cf7)" style="fill: none; stroke: #8c564b; stroke-width: 1.5; stroke-linecap: square"/>
   </g>
   <g id="patch_3">
    <path d="M 86.4 346.032 
L 86.4 46.656 
" style="fill: none; stroke: #000000; stroke-width: 0.8; stroke-linejoin: miter; stroke-linecap: square"/>
   </g>
   <g id="patch_4">
    <path d="M 622.08 346.032 
L 622.08 46.656 
" style="fill: none; stroke: #000000; stroke-width: 0.8; stroke-linejoin: miter; stroke-linecap: square"/>
   </g>
   <g id="patch_5">
    <path d="M 86.4 346.032 
L 622.08 346.032 
" style="fill: none; stroke: #000000; stroke-width: 0.8; stroke-linejoin: miter; stroke-linecap: square"/>
   </g>
   <g id="patch_6">
    <path d="M 86.4 46.656 
L 622.08 46.656 
" style="fill: none; stroke: #000000; stroke-width: 0.8; stroke-linejoin: miter; stroke-linecap: square"/>
   </g>
   <g id="text_27">
    <!-- compile: g++ B.cpp -o B -std=c++23 -O2 -mavx2 -->
    <g transform="translate(203.405625 27.218625) scale(0.12 -0.12)">
     <defs>
      <path id="DejaVuSans-63" d="M 3122 3366 
L 3122 2828 
Q 2878 2963 2633 3030 
Q 2388 3097 2138 3097 
Q 1578 3097 1268 2742 
Q 959 2388 959 1747 
Q 959 1106 1268 751 
Q 1578 397 2138 397 
Q 2388 397 2633 464 
Q 2878 531 3122 666 
L 3122 134 
Q 2881 22 2623 -34 
Q 2366 -91 2075 -91 
Q 1284 -91 818 406 
Q 353 903 353 1747 
Q 353 2603 823 3093 
Q 1294 3584 2113 3584 
Q 2378 3584 2631 3529 
Q 2884 3475 3122 3366 
z
" transform="scale(0.015625)"/>
      <path id="DejaVuSans-69" d="M 603 3500 
L 1178 3500 
L 1178 0 
L 603 0 
L 603 3500 
z
M 603 4863 
L 1178 4863 
L 1178 4134 
L 603 4134 
L 603 4863 
z
" transform="scale(0.015625)"/>
      <path id="DejaVuSans-3a" d="M 750 794 
L 1409 794 
L 1409 0 
L 750 0 
L 750 794 
z
M 750 3309 
L 1409 3309 
L 1409 2516 
L 750 2516 
L 750 3309 
z
" transform="scale(0.015625)"/>
      <path id="DejaVuSans-2b" d="M 2944 4013 
L 2944 2272 
L 4684 2272 
L 4684 1741 
L 2944 1741 
L 2944 0 
L 2419 0 
L 2419 1741 
L 678 1741 
L 678 2272 
L 2419 2272 
L 2419 4013 
L 2944 4013 
z
" transform="scale(0.015625)"/>
      <path id="DejaVuSans-42" d="M 1259 2228 
L 1259 519 
L 2272 519 
Q 2781 519 3026 730 
Q 3272 941 3272 1375 
Q 3272 1813 3026 2020 
Q 2781 2228 2272 2228 
L 1259 2228 
z
M 1259 4147 
L 1259 2741 
L 2194 2741 
Q 2656 2741 2882 2914 
Q 3109 3088 3109 3444 
Q 3109 3797 2882 3972 
Q 2656 4147 2194 4147 
L 1259 4147 
z
M 628 4666 
L 2241 4666 
Q 2963 4666 3353 4366 
Q 3744 4066 3744 3513 
Q 3744 3084 3544 2831 
Q 3344 2578 2956 2516 
Q 3422 2416 3680 2098 
Q 3938 1781 3938 1306 
Q 3938 681 3513 340 
Q 3088 0 2303 0 
L 628 0 
L 628 4666 
z
" transform="scale(0.015625)"/>
      <path id="DejaVuSans-2e" d="M 684 794 
L 1344 794 
L 1344 0 
L 684 0 
L 684 794 
z
" transform="scale(0.015625)"/>
      <path id="DejaVuSans-2d" d="M 313 2009 
L 1997 2009 
L 1997 1497 
L 313 1497 
L 313 2009 
z
" transform="scale(0.015625)"/>
      <path id="DejaVuSans-64" d="M 2906 2969 
L 2906 4863 
L 3481 4863 
L 3481 0 
L 2906 0 
L 2906 525 
Q 2725 213 2448 61 
Q 2172 -91 1784 -91 
Q 1150 -91 751 415 
Q 353 922 353 1747 
Q 353 2572 751 3078 
Q 1150 3584 1784 3584 
Q 2172 3584 2448 3432 
Q 2725 3281 2906 2969 
z
M 947 1747 
Q 947 1113 1208 752 
Q 1469 391 1925 391 
Q 2381 391 2643 752 
Q 2906 1113 2906 1747 
Q 2906 2381 2643 2742 
Q 2381 3103 1925 3103 
Q 1469 3103 1208 2742 
Q 947 2381 947 1747 
z
" transform="scale(0.015625)"/>
      <path id="DejaVuSans-3d" d="M 678 2906 
L 4684 2906 
L 4684 2381 
L 678 2381 
L 678 2906 
z
M 678 1631 
L 4684 1631 
L 4684 1100 
L 678 1100 
L 678 1631 
z
" transform="scale(0.015625)"/>
      <path id="DejaVuSans-4f" d="M 2522 4238 
Q 1834 4238 1429 3725 
Q 1025 3213 1025 2328 
Q 1025 1447 1429 934 
Q 1834 422 2522 422 
Q 3209 422 3611 934 
Q 4013 1447 4013 2328 
Q 4013 3213 3611 3725 
Q 3209 4238 2522 4238 
z
M 2522 4750 
Q 3503 4750 4090 4092 
Q 4678 3434 4678 2328 
Q 4678 1225 4090 567 
Q 3503 -91 2522 -91 
Q 1538 -91 948 565 
Q 359 1222 359 2328 
Q 359 3434 948 4092 
Q 1538 4750 2522 4750 
z
" transform="scale(0.015625)"/>
      <path id="DejaVuSans-61" d="M 2194 1759 
Q 1497 1759 1228 1600 
Q 959 1441 959 1056 
Q 959 750 1161 570 
Q 1363 391 1709 391 
Q 2188 391 2477 730 
Q 2766 1069 2766 1631 
L 2766 1759 
L 2194 1759 
z
M 3341 1997 
L 3341 0 
L 2766 0 
L 2766 531 
Q 2569 213 2275 61 
Q 1981 -91 1556 -91 
Q 1019 -91 701 211 
Q 384 513 384 1019 
Q 384 1609 779 1909 
Q 1175 2209 1959 2209 
L 2766 2209 
L 2766 2266 
Q 2766 2663 2505 2880 
Q 2244 3097 1772 3097 
Q 1472 3097 1187 3025 
Q 903 2953 641 2809 
L 641 3341 
Q 956 3463 1253 3523 
Q 1550 3584 1831 3584 
Q 2591 3584 2966 3190 
Q 3341 2797 3341 1997 
z
" transform="scale(0.015625)"/>
      <path id="DejaVuSans-76" d="M 191 3500 
L 800 3500 
L 1894 563 
L 2988 3500 
L 3597 3500 
L 2284 0 
L 1503 0 
L 191 3500 
z
" transform="scale(0.015625)"/>
      <path id="DejaVuSans-78" d="M 3513 3500 
L 2247 1797 
L 3578 0 
L 2900 0 
L 1881 1375 
L 863 0 
L 184 0 
L 1544 1831 
L 300 3500 
L 978 3500 
L 1906 2253 
L 2834 3500 
L 3513 3500 
z
" transform="scale(0.015625)"/>
     </defs>
     <use xlink:href="#DejaVuSans-63"/>
     <use xlink:href="#DejaVuSans-6f" x="54.980469"/>
     <use xlink:href="#DejaVuSans-6d" x="116.162109"/>
     <use xlink:href="#DejaVuSans-70" x="213.574219"/>
     <use xlink:href="#DejaVuSans-69" x="277.050781"/>
     <use xlink:href="#DejaVuSans-6c" x="304.833984"/>
     <use xlink:href="#DejaVuSans-65" x="332.617188"/>
     <use xlink:href="#DejaVuSans-3a" x="394.140625"/>
     <use xlink:href="#DejaVuSans-20" x="427.832031"/>
     <use xlink:href="#DejaVuSans-67" x="459.619141"/>
     <use xlink:href="#DejaVuSans-2b" x="523.095703"/>
     <use xlink:href="#DejaVuSans-2b" x="606.884766"/>
     <use xlink:href="#DejaVuSans-20" x="690.673828"/>
     <use xlink:href="#DejaVuSans-42" x="722.460938"/>
     <use xlink:href="#DejaVuSans-2e" x="791.064453"/>
     <use xlink:href="#DejaVuSans-63" x="822.851562"/>
     <use xlink:href="#DejaVuSans-70" x="877.832031"/>
     <use xlink:href="#DejaVuSans-70" x="941.308594"/>
     <use xlink:href="#DejaVuSans-20" x="1004.785156"/>
     <use xlink:href="#DejaVuSans-2d" x="1036.572266"/>
     <use xlink:href="#DejaVuSans-6f" x="1074.53125"/>
     <use xlink:href="#DejaVuSans-20" x="1135.712891"/>
     <use xlink:href="#DejaVuSans-42" x="1167.5"/>
     <use xlink:href="#DejaVuSans-20" x="1236.103516"/>
     <use xlink:href="#DejaVuSans-2d" x="1267.890625"/>
     <use xlink:href="#DejaVuSans-73" x="1303.974609"/>
     <use xlink:href="#DejaVuSans-74" x="1356.074219"/>
     <use xlink:href="#DejaVuSans-64" x="1395.283203"/>
     <use xlink:href="#DejaVuSans-3d" x="1458.759766"/>
     <use xlink:href="#DejaVuSans-63" x="1542.548828"/>
     <use xlink:href="#DejaVuSans-2b" x="1597.529297"/>
     <use xlink:href="#DejaVuSans-2b" x="1681.318359"/>
     <use xlink:href="#DejaVuSans-32" x="1765.107422"/>
     <use xlink:href="#DejaVuSans-33" x="1828.730469"/>
     <use xlink:href="#DejaVuSans-20" x="1892.353516"/>
     <use xlink:href="#DejaVuSans-2d" x="1924.140625"/>
     <use xlink:href="#DejaVuSans-4f" x="1962.974609"/>
     <use xlink:href="#DejaVuSans-32" x="2041.685547"/>
     <use xlink:href="#DejaVuSans-20" x="2105.308594"/>
     <use xlink:href="#DejaVuSans-2d" x="2137.095703"/>
     <use xlink:href="#DejaVuSans-6d" x="2173.179688"/>
     <use xlink:href="#DejaVuSans-61" x="2270.591797"/>
     <use xlink:href="#DejaVuSans-76" x="2331.871094"/>
     <use xlink:href="#DejaVuSans-78" x="2391.050781"/>
     <use xlink:href="#DejaVuSans-32" x="2450.230469"/>
    </g>
    <!-- proc: AMD Ryzen AI 9 HX 370 -->
    <g transform="translate(265.965 40.656) scale(0.12 -0.12)">
     <defs>
      <path id="DejaVuSans-41" d="M 2188 4044 
L 1331 1722 
L 3047 1722 
L 2188 4044 
z
M 1831 4666 
L 2547 4666 
L 4325 0 
L 3669 0 
L 3244 1197 
L 1141 1197 
L 716 0 
L 50 0 
L 1831 4666 
z
" transform="scale(0.015625)"/>
      <path id="DejaVuSans-4d" d="M 628 4666 
L 1569 4666 
L 2759 1491 
L 3956 4666 
L 4897 4666 
L 4897 0 
L 4281 0 
L 4281 4097 
L 3078 897 
L 2444 897 
L 1241 4097 
L 1241 0 
L 628 0 
L 628 4666 
z
" transform="scale(0.015625)"/>
      <path id="DejaVuSans-44" d="M 1259 4147 
L 1259 519 
L 2022 519 
Q 2988 519 3436 956 
Q 3884 1394 3884 2338 
Q 3884 3275 3436 3711 
Q 2988 4147 2022 4147 
L 1259 4147 
z
M 628 4666 
L 1925 4666 
Q 3281 4666 3915 4102 
Q 4550 3538 4550 2338 
Q 4550 1131 3912 565 
Q 3275 0 1925 0 
L 628 0 
L 628 4666 
z
" transform="scale(0.015625)"/>
      <path id="DejaVuSans-52" d="M 2841 2188 
Q 3044 2119 3236 1894 
Q 3428 1669 3622 1275 
L 4263 0 
L 3584 0 
L 2988 1197 
Q 2756 1666 2539 1819 
Q 2322 1972 1947 1972 
L 1259 1972 
L 1259 0 
L 628 0 
L 628 4666 
L 2053 4666 
Q 2853 4666 3247 4331 
Q 3641 3997 3641 3322 
Q 3641 2881 3436 2590 
Q 3231 2300 2841 2188 
z
M 1259 4147 
L 1259 2491 
L 2053 2491 
Q 2509 2491 2742 2702 
Q 2975 2913 2975 3322 
Q 2975 3731 2742 3939 
Q 2509 4147 2053 4147 
L 1259 4147 
z
" transform="scale(0.015625)"/>
      <path id="DejaVuSans-79" d="M 2059 -325 
Q 1816 -950 1584 -1140 
Q 1353 -1331 966 -1331 
L 506 -1331 
L 506 -850 
L 844 -850 
Q 1081 -850 1212 -737 
Q 1344 -625 1503 -206 
L 1606 56 
L 191 3500 
L 800 3500 
L 1894 763 
L 2988 3500 
L 3597 3500 
L 2059 -325 
z
" transform="scale(0.015625)"/>
      <path id="DejaVuSans-7a" d="M 353 3500 
L 3084 3500 
L 3084 2975 
L 922 459 
L 3084 459 
L 3084 0 
L 275 0 
L 275 525 
L 2438 3041 
L 353 3041 
L 353 3500 
z
" transform="scale(0.015625)"/>
      <path id="DejaVuSans-49" d="M 628 4666 
L 1259 4666 
L 1259 0 
L 628 0 
L 628 4666 
z
" transform="scale(0.015625)"/>
      <path id="DejaVuSans-48" d="M 628 4666 
L 1259 4666 
L 1259 2753 
L 3553 2753 
L 3553 4666 
L 4184 4666 
L 4184 0 
L 3553 0 
L 3553 2222 
L 1259 2222 
L 1259 0 
L 628 0 
L 628 4666 
z
" transform="scale(0.015625)"/>
      <path id="DejaVuSans-58" d="M 403 4666 
L 1081 4666 
L 2241 2931 
L 3406 4666 
L 4084 4666 
L 2584 2425 
L 4184 0 
L 3506 0 
L 2194 1984 
L 872 0 
L 191 0 
L 1856 2491 
L 403 4666 
z
" transform="scale(0.015625)"/>
     </defs>
     <use xlink:href="#DejaVuSans-70"/>
     <use xlink:href="#DejaVuSans-72" x="63.476562"/>
     <use xlink:href="#DejaVuSans-6f" x="102.339844"/>
     <use xlink:href="#DejaVuSans-63" x="163.521484"/>
     <use xlink:href="#DejaVuSans-3a" x="218.501953"/>
     <use xlink:href="#DejaVuSans-20" x="252.193359"/>
     <use xlink:href="#DejaVuSans-41" x="283.980469"/>
     <use xlink:href="#DejaVuSans-4d" x="352.388672"/>
     <use xlink:href="#DejaVuSans-44" x="438.667969"/>
     <use xlink:href="#DejaVuSans-20" x="515.669922"/>
     <use xlink:href="#DejaVuSans-52" x="547.457031"/>
     <use xlink:href="#DejaVuSans-79" x="611.439453"/>
     <use xlink:href="#DejaVuSans-7a" x="670.619141"/>
     <use xlink:href="#DejaVuSans-65" x="723.109375"/>
     <use xlink:href="#DejaVuSans-6e" x="784.632812"/>
     <use xlink:href="#DejaVuSans-20" x="848.011719"/>
     <use xlink:href="#DejaVuSans-41" x="879.798828"/>
     <use xlink:href="#DejaVuSans-49" x="948.207031"/>
     <use xlink:href="#DejaVuSans-20" x="977.699219"/>
     <use xlink:href="#DejaVuSans-39" x="1009.486328"/>
     <use xlink:href="#DejaVuSans-20" x="1073.109375"/>
     <use xlink:href="#DejaVuSans-48" x="1104.896484"/>
     <use xlink:href="#DejaVuSans-58" x="1180.091797"/>
     <use xlink:href="#DejaVuSans-20" x="1248.597656"/>
     <use xlink:href="#DejaVuSans-33" x="1280.384766"/>
     <use xlink:href="#DejaVuSans-37" x="1344.007812"/>
     <use xlink:href="#DejaVuSans-30" x="1407.630859"/>
    </g>
   </g>
   <g id="legend_1">
    <g id="patch_7">
     <path d="M 93.4 143.83725 
L 236.339063 143.83725 
Q 238.339063 143.83725 238.339063 141.83725 
L 238.339063 53.656 
Q 238.339063 51.656 236.339063 51.656 
L 93.4 51.656 
Q 91.4 51.656 91.4 53.656 
L 91.4 141.83725 
Q 91.4 143.83725 93.4 143.83725 
z
" style="fill: #ffffff; opacity: 0.8; stroke: #cccccc; stroke-linejoin: miter"/>
    </g>
    <g id="line2d_58">
     <path d="M 95.4 59.754437 
L 105.4 59.754437 
L 115.4 59.754437 
" style="fill: none; stroke: #1f77b4; stroke-width: 1.5; stroke-linecap: square"/>
    </g>
    <g id="text_28">
     <!-- scalar -->
     <g transform="translate(123.4 63.254437) scale(0.1 -0.1)">
      <use xlink:href="#DejaVuSans-73"/>
      <use xlink:href="#DejaVuSans-63" x="52.099609"/>
      <use xlink:href="#DejaVuSans-61" x="107.080078"/>
      <use xlink:href="#DejaVuSans-6c" x="168.359375"/>
      <use xlink:href="#DejaVuSans-61" x="196.142578"/>
      <use xlink:href="#DejaVuSans-72" x="257.421875"/>
     </g>
    </g>
    <g id="line2d_59">
     <path d="M 95.4 74.432563 
L 105.4 74.432563 
L 115.4 74.432563 
" style="fill: none; stroke: #ff7f0e; stroke-width: 1.5; stroke-linecap: square"/>
    </g>
    <g id="text_29">
     <!-- simd_naive -->
     <g transform="translate(123.4 77.932563) scale(0.1 -0.1)">
      <use xlink:href="#DejaVuSans-73"/>
      <use xlink:href="#DejaVuSans-69" x="52.099609"/>
      <use xlink:href="#DejaVuSans-6d" x="79.882812"/>
      <use xlink:href="#DejaVuSans-64" x="177.294922"/>
      <use xlink:href="#DejaVuSans-5f" x="240.771484"/>
      <use xlink:href="#DejaVuSans-6e" x="290.771484"/>
      <use xlink:href="#DejaVuSans-61" x="354.150391"/>
      <use xlink:href="#DejaVuSans-69" x="415.429688"/>
      <use xlink:href="#DejaVuSans-76" x="443.212891"/>
      <use xlink:href="#DejaVuSans-65" x="502.392578"/>
     </g>
    </g>
    <g id="line2d_60">
     <path d="M 95.4 89.388812 
L 105.4 89.388812 
L 115.4 89.388812 
" style="fill: none; stroke: #2ca02c; stroke-width: 1.5; stroke-linecap: square"/>
    </g>
    <g id="text_30">
     <!-- simd_naive_unaligned -->
     <g transform="translate(123.4 92.888812) scale(0.1 -0.1)">
      <defs>
       <path id="DejaVuSans-75" d="M 544 1381 
L 544 3500 
L 1119 3500 
L 1119 1403 
Q 1119 906 1312 657 
Q 1506 409 1894 409 
Q 2359 409 2629 706 
Q 2900 1003 2900 1516 
L 2900 3500 
L 3475 3500 
L 3475 0 
L 2900 0 
L 2900 538 
Q 2691 219 2414 64 
Q 2138 -91 1772 -91 
Q 1169 -91 856 284 
Q 544 659 544 1381 
z
M 1991 3584 
L 1991 3584 
z
" transform="scale(0.015625)"/>
      </defs>
      <use xlink:href="#DejaVuSans-73"/>
      <use xlink:href="#DejaVuSans-69" x="52.099609"/>
      <use xlink:href="#DejaVuSans-6d" x="79.882812"/>
      <use xlink:href="#DejaVuSans-64" x="177.294922"/>
      <use xlink:href="#DejaVuSans-5f" x="240.771484"/>
      <use xlink:href="#DejaVuSans-6e" x="290.771484"/>
      <use xlink:href="#DejaVuSans-61" x="354.150391"/>
      <use xlink:href="#DejaVuSans-69" x="415.429688"/>
      <use xlink:href="#DejaVuSans-76" x="443.212891"/>
      <use xlink:href="#DejaVuSans-65" x="502.392578"/>
      <use xlink:href="#DejaVuSans-5f" x="563.916016"/>
      <use xlink:href="#DejaVuSans-75" x="613.916016"/>
      <use xlink:href="#DejaVuSans-6e" x="677.294922"/>
      <use xlink:href="#DejaVuSans-61" x="740.673828"/>
      <use xlink:href="#DejaVuSans-6c" x="801.953125"/>
      <use xlink:href="#DejaVuSans-69" x="829.736328"/>
      <use xlink:href="#DejaVuSans-67" x="857.519531"/>
      <use xlink:href="#DejaVuSans-6e" x="920.996094"/>
      <use xlink:href="#DejaVuSans-65" x="984.375"/>
      <use xlink:href="#DejaVuSans-64" x="1045.898438"/>
     </g>
    </g>
    <g id="line2d_61">
     <path d="M 95.4 104.345062 
L 105.4 104.345062 
L 115.4 104.345062 
" style="fill: none; stroke: #d62728; stroke-width: 1.5; stroke-linecap: square"/>
    </g>
    <g id="text_31">
     <!-- simd -->
     <g transform="translate(123.4 107.845062) scale(0.1 -0.1)">
      <use xlink:href="#DejaVuSans-73"/>
      <use xlink:href="#DejaVuSans-69" x="52.099609"/>
      <use xlink:href="#DejaVuSans-6d" x="79.882812"/>
      <use xlink:href="#DejaVuSans-64" x="177.294922"/>
     </g>
    </g>
    <g id="line2d_62">
     <path d="M 95.4 119.023188 
L 105.4 119.023188 
L 115.4 119.023188 
" style="fill: none; stroke: #9467bd; stroke-width: 1.5; stroke-linecap: square"/>
    </g>
    <g id="text_32">
     <!-- simd_unaligned -->
     <g transform="translate(123.4 122.523188) scale(0.1 -0.1)">
      <use xlink:href="#DejaVuSans-73"/>
      <use xlink:href="#DejaVuSans-69" x="52.099609"/>
      <use xlink:href="#DejaVuSans-6d" x="79.882812"/>
      <use xlink:href="#DejaVuSans-64" x="177.294922"/>
      <use xlink:href="#DejaVuSans-5f" x="240.771484"/>
      <use xlink:href="#DejaVuSans-75" x="290.771484"/>
      <use xlink:href="#DejaVuSans-6e" x="354.150391"/>
      <use xlink:href="#DejaVuSans-61" x="417.529297"/>
      <use xlink:href="#DejaVuSans-6c" x="478.808594"/>
      <use xlink:href="#DejaVuSans-69" x="506.591797"/>
      <use xlink:href="#DejaVuSans-67" x="534.375"/>
      <use xlink:href="#DejaVuSans-6e" x="597.851562"/>
      <use xlink:href="#DejaVuSans-65" x="661.230469"/>
      <use xlink:href="#DejaVuSans-64" x="722.753906"/>
     </g>
    </g>
    <g id="line2d_63">
     <path d="M 95.4 133.979438 
L 105.4 133.979438 
L 115.4 133.979438 
" style="fill: none; stroke: #8c564b; stroke-width: 1.5; stroke-linecap: square"/>
    </g>
    <g id="text_33">
     <!-- simd_x2 -->
     <g transform="translate(123.4 137.479438) scale(0.1 -0.1)">
      <use xlink:href="#DejaVuSans-73"/>
      <use xlink:href="#DejaVuSans-69" x="52.099609"/>
      <use xlink:href="#DejaVuSans-6d" x="79.882812"/>
      <use xlink:href="#DejaVuSans-64" x="177.294922"/>
      <use xlink:href="#DejaVuSans-5f" x="240.771484"/>
      <use xlink:href="#DejaVuSans-78" x="290.771484"/>
      <use xlink:href="#DejaVuSans-32" x="349.951172"/>
     </g>
    </g>
   </g>
  </g>
 </g>
 <defs>
  <clipPath id="p6bf9448cf7">
   <rect x="86.4" y="46.656" width="535.68" height="299.376"/>
  </clipPath>
 </defs>
</svg>
