<?xml version="1.0" encoding="utf-8" standalone="no"?>
<!DOCTYPE svg PUBLIC "-//W3C//DTD SVG 1.1//EN"
  "http://www.w3.org/Graphics/SVG/1.1/DTD/svg11.dtd">
<svg xmlns:xlink="http://www.w3.org/1999/xlink" width="691.2pt" height="388.8pt" viewBox="0 0 691.2 388.8" xmlns="http://www.w3.org/2000/svg" version="1.1">
 <metadata>
  <rdf:RDF xmlns:dc="http://purl.org/dc/elements/1.1/" xmlns:cc="http://creativecommons.org/ns#" xmlns:rdf="http://www.w3.org/1999/02/22-rdf-syntax-ns#">
   <cc:Work>
    <dc:type rdf:resource="http://purl.org/dc/dcmitype/StillImage"/>
    <dc:date>2026-04-21T22:21:10.168251</dc:date>
    <dc:format>image/svg+xml</dc:format>
    <dc:creator>
     <cc:Agent>
      <dc:title>Matplotlib v3.6.0, https://matplotlib.org/</dc:title>
     </cc:Agent>
    </dc:creator>
   </cc:Work>
  </rdf:RDF>
 </metadata>
 <defs>
  <style type="text/css">*{stroke-linejoin: round; stroke-linecap: butt}</style>
 </defs>
 <g id="figure_1">
  <g id="patch_1">
   <path d="M 0 388.8 
L 691.2 388.8 
L 691.2 0 
L 0 0 
z
" style="fill: #ffffff"/>
  </g>
  <g id="axes_1">
   <g id="patch_2">
    <path d="M 86.4 346.032 
L 622.08 346.032 
L 622.08 46.656 
L 86.4 46.656 
z
" style="fill: #ffffff"/>
   </g>
   <g id="matplotlib.axis_1">
    <g id="xtick_1">
     <g id="line2d_1">
      <path d="M 104.256 346.032 
L 104.256 46.656 
" clip-path="url(#pc24bff29a6)" style="fill: none; stroke-dasharray: 2.96,1.28; stroke-dashoffset: 0; stroke: #b0b0b0; stroke-width: 0.8"/>
     </g>
     <g id="line2d_2">
      <defs>
       <path id="m86265eb0f8" d="M 0 0 
L 0 3.5 
" style="stroke: #000000; stroke-width: 0.8"/>
      </defs>
      <g>
       <use xlink:href="#m86265eb0f8" x="104.256" y="346.032" style="stroke: #000000; stroke-width: 0.8"/>
      </g>
     </g>
     <g id="text_1">
      <!-- 7 -->
      <g transform="translate(101.07475 360.630438) scale(0.1 -0.1)">
       <defs>
        <path id="DejaVuSans-37" d="M 525 4666 
L 3525 4666 
L 3525 4397 
L 1831 0 
L 1172 0 
L 2766 4134 
L 525 4134 
L 525 4666 
z
" transform="scale(0.015625)"/>
       </defs>
       <use xlink:href="#DejaVuSans-37"/>
      </g>
     </g>
    </g>
    <g id="xtick_2">
     <g id="line2d_3">
      <path d="M 139.968 346.032 
L 139.968 46.656 
" clip-path="url(#pc24bff29a6)" style="fill: none; stroke-dasharray: 2.96,1.28; stroke-dashoffset: 0; stroke: #b0b0b0; stroke-width: 0.8"/>
     </g>
     <g id="line2d_4">
      <g>
       <use xlink:href="#m86265eb0f8" x="139.968" y="346.032" style="stroke: #000000; stroke-width: 0.8"/>
      </g>
     </g>
     <g id="text_2">
      <!-- 8 -->
      <g transform="translate(136.78675 360.630438) scale(0.1 -0.1)">
       <defs>
        <path id="DejaVuSans-38" d="M 2034 2216 
Q 1584 2216 1326 1975 
Q 1069 1734 1069 1313 
Q 1069 891 1326 650 
Q 1584 409 2034 409 
Q 2484 409 2743 651 
Q 3003 894 3003 1313 
Q 3003 1734 2745 1975 
Q 2488 2216 2034 2216 
z
M 1403 2484 
Q 997 2584 770 2862 
Q 544 3141 544 3541 
Q 544 4100 942 4425 
Q 1341 4750 2034 4750 
Q 2731 4750 3128 4425 
Q 3525 4100 3525 3541 
Q 3525 3141 3298 2862 
Q 3072 2584 2669 2484 
Q 3125 2378 3379 2068 
Q 3634 1759 3634 1313 
Q 3634 634 3220 271 
Q 2806 -91 2034 -91 
Q 1263 -91 848 271 
Q 434 634 434 1313 
Q 434 1759 690 2068 
Q 947 2378 1403 2484 
z
M 1172 3481 
Q 1172 3119 1398 2916 
Q 1625 2713 2034 2713 
Q 2441 2713 2670 2916 
Q 2900 3119 2900 3481 
Q 2900 3844 2670 4047 
Q 2441 4250 2034 4250 
Q 1625 4250 1398 4047 
Q 1172 3844 1172 3481 
z
" transform="scale(0.015625)"/>
       </defs>
       <use xlink:href="#DejaVuSans-38"/>
      </g>
     </g>
    </g>
    <g id="xtick_3">
     <g id="line2d_5">
      <path d="M 175.68 346.032 
L 175.68 46.656 
" clip-path="url(#pc24bff29a6)" style="fill: none; stroke-dasharray: 2.96,1.28; stroke-dashoffset: 0; stroke: #b0b0b0; stroke-width: 0.8"/>
     </g>
     <g id="line2d_6">
      <g>
       <use xlink:href="#m86265eb0f8" x="175.68" y="346.032" style="stroke: #000000; stroke-width: 0.8"/>
      </g>
     </g>
     <g id="text_3">
      <!-- 9 -->
      <g transform="translate(172.49875 360.630438) scale(0.1 -0.1)">
       <defs>
        <path id="DejaVuSans-39" d="M 703 97 
L 703 672 
Q 941 559 1184 500 
Q 1428 441 1663 441 
Q 2288 441 2617 861 
Q 2947 1281 2994 2138 
Q 2813 1869 2534 1725 
Q 2256 1581 1919 1581 
Q 1219 1581 811 2004 
Q 403 2428 403 3163 
Q 403 3881 828 4315 
Q 1253 4750 1959 4750 
Q 2769 4750 3195 4129 
Q 3622 3509 3622 2328 
Q 3622 1225 3098 567 
Q 2575 -91 1691 -91 
Q 1453 -91 1209 -44 
Q 966 3 703 97 
z
M 1959 2075 
Q 2384 2075 2632 2365 
Q 2881 2656 2881 3163 
Q 2881 3666 2632 3958 
Q 2384 4250 1959 4250 
Q 1534 4250 1286 3958 
Q 1038 3666 1038 3163 
Q 1038 2656 1286 2365 
Q 1534 2075 1959 2075 
z
" transform="scale(0.015625)"/>
       </defs>
       <use xlink:href="#DejaVuSans-39"/>
      </g>
     </g>
    </g>
    <g id="xtick_4">
     <g id="line2d_7">
      <path d="M 211.392 346.032 
L 211.392 46.656 
" clip-path="url(#pc24bff29a6)" style="fill: none; stroke-dasharray: 2.96,1.28; stroke-dashoffset: 0; stroke: #b0b0b0; stroke-width: 0.8"/>
     </g>
     <g id="line2d_8">
      <g>
       <use xlink:href="#m86265eb0f8" x="211.392" y="346.032" style="stroke: #000000; stroke-width: 0.8"/>
      </g>
     </g>
     <g id="text_4">
      <!-- 10 -->
      <g transform="translate(205.0295 360.630438) scale(0.1 -0.1)">
       <defs>
        <path id="DejaVuSans-31" d="M 794 531 
L 1825 531 
L 1825 4091 
L 703 3866 
L 703 4441 
L 1819 4666 
L 2450 4666 
L 2450 531 
L 3481 531 
L 3481 0 
L 794 0 
L 794 531 
z
" transform="scale(0.015625)"/>
        <path id="DejaVuSans-30" d="M 2034 4250 
Q 1547 4250 1301 3770 
Q 1056 3291 1056 2328 
Q 1056 1369 1301 889 
Q 1547 409 2034 409 
Q 2525 409 2770 889 
Q 3016 1369 3016 2328 
Q 3016 3291 2770 3770 
Q 2525 4250 2034 4250 
z
M 2034 4750 
Q 2819 4750 3233 4129 
Q 3647 3509 3647 2328 
Q 3647 1150 3233 529 
Q 2819 -91 2034 -91 
Q 1250 -91 836 529 
Q 422 1150 422 2328 
Q 422 3509 836 4129 
Q 1250 4750 2034 4750 
z
" transform="scale(0.015625)"/>
       </defs>
       <use xlink:href="#DejaVuSans-31"/>
       <use xlink:href="#DejaVuSans-30" x="63.623047"/>
      </g>
     </g>
    </g>
    <g id="xtick_5">
     <g id="line2d_9">
      <path d="M 247.104 346.032 
L 247.104 46.656 
" clip-path="url(#pc24bff29a6)" style="fill: none; stroke-dasharray: 2.96,1.28; stroke-dashoffset: 0; stroke: #b0b0b0; stroke-width: 0.8"/>
     </g>
     <g id="line2d_10">
      <g>
       <use xlink:href="#m86265eb0f8" x="247.104" y="346.032" style="stroke: #000000; stroke-width: 0.8"/>
      </g>
     </g>
     <g id="text_5">
      <!-- 11 -->
      <g transform="translate(240.7415 360.630438) scale(0.1 -0.1)">
       <use xlink:href="#DejaVuSans-31"/>
       <use xlink:href="#DejaVuSans-31" x="63.623047"/>
      </g>
     </g>
    </g>
    <g id="xtick_6">
     <g id="line2d_11">
      <path d="M 282.816 346.032 
L 282.816 46.656 
" clip-path="url(#pc24bff29a6)" style="fill: none; stroke-dasharray: 2.96,1.28; stroke-dashoffset: 0; stroke: #b0b0b0; stroke-width: 0.8"/>
     </g>
     <g id="line2d_12">
      <g>
       <use xlink:href="#m86265eb0f8" x="282.816" y="346.032" style="stroke: #000000; stroke-width: 0.8"/>
      </g>
     </g>
     <g id="text_6">
      <!-- 12 -->
      <g transform="translate(276.4535 360.630438) scale(0.1 -0.1)">
       <defs>
        <path id="DejaVuSans-32" d="M 1228 531 
L 3431 531 
L 3431 0 
L 469 0 
L 469 531 
Q 828 903 1448 1529 
Q 2069 2156 2228 2338 
Q 2531 2678 2651 2914 
Q 2772 3150 2772 3378 
Q 2772 3750 2511 3984 
Q 2250 4219 1831 4219 
Q 1534 4219 1204 4116 
Q 875 4013 500 3803 
L 500 4441 
Q 881 4594 1212 4672 
Q 1544 4750 1819 4750 
Q 2544 4750 2975 4387 
Q 3406 4025 3406 3419 
Q 3406 3131 3298 2873 
Q 3191 2616 2906 2266 
Q 2828 2175 2409 1742 
Q 1991 1309 1228 531 
z
" transform="scale(0.015625)"/>
       </defs>
       <use xlink:href="#DejaVuSans-31"/>
       <use xlink:href="#DejaVuSans-32" x="63.623047"/>
      </g>
     </g>
    </g>
    <g id="xtick_7">
     <g id="line2d_13">
      <path d="M 318.528 346.032 
L 318.528 46.656 
" clip-path="url(#pc24bff29a6)" style="fill: none; stroke-dasharray: 2.96,1.28; stroke-dashoffset: 0; stroke: #b0b0b0; stroke-width: 0.8"/>
     </g>
     <g id="line2d_14">
      <g>
       <use xlink:href="#m86265eb0f8" x="318.528" y="346.032" style="stroke: #000000; stroke-width: 0.8"/>
      </g>
     </g>
     <g id="text_7">
      <!-- 13 -->
      <g transform="translate(312.1655 360.630438) scale(0.1 -0.1)">
       <defs>
        <path id="DejaVuSans-33" d="M 2597 2516 
Q 3050 2419 3304 2112 
Q 3559 1806 3559 1356 
Q 3559 666 3084 287 
Q 2609 -91 1734 -91 
Q 1441 -91 1130 -33 
Q 819 25 488 141 
L 488 750 
Q 750 597 1062 519 
Q 1375 441 1716 441 
Q 2309 441 2620 675 
Q 2931 909 2931 1356 
Q 2931 1769 2642 2001 
Q 2353 2234 1838 2234 
L 1294 2234 
L 1294 2753 
L 1863 2753 
Q 2328 2753 2575 2939 
Q 2822 3125 2822 3475 
Q 2822 3834 2567 4026 
Q 2313 4219 1838 4219 
Q 1578 4219 1281 4162 
Q 984 4106 628 3988 
L 628 4550 
Q 988 4650 1302 4700 
Q 1616 4750 1894 4750 
Q 2613 4750 3031 4423 
Q 3450 4097 3450 3541 
Q 3450 3153 3228 2886 
Q 3006 2619 2597 2516 
z
" transform="scale(0.015625)"/>
       </defs>
       <use xlink:href="#DejaVuSans-31"/>
       <use xlink:href="#DejaVuSans-33" x="63.623047"/>
      </g>
     </g>
    </g>
    <g id="xtick_8">
     <g id="line2d_15">
      <path d="M 354.24 346.032 
L 354.24 46.656 
" clip-path="url(#pc24bff29a6)" style="fill: none; stroke-dasharray: 2.96,1.28; stroke-dashoffset: 0; stroke: #b0b0b0; stroke-width: 0.8"/>
     </g>
     <g id="line2d_16">
      <g>
       <use xlink:href="#m86265eb0f8" x="354.24" y="346.032" style="stroke: #000000; stroke-width: 0.8"/>
      </g>
     </g>
     <g id="text_8">
      <!-- 14 -->
      <g transform="translate(347.8775 360.630438) scale(0.1 -0.1)">
       <defs>
        <path id="DejaVuSans-34" d="M 2419 4116 
L 825 1625 
L 2419 1625 
L 2419 4116 
z
M 2253 4666 
L 3047 4666 
L 3047 1625 
L 3713 1625 
L 3713 1100 
L 3047 1100 
L 3047 0 
L 2419 0 
L 2419 1100 
L 313 1100 
L 313 1709 
L 2253 4666 
z
" transform="scale(0.015625)"/>
       </defs>
       <use xlink:href="#DejaVuSans-31"/>
       <use xlink:href="#DejaVuSans-34" x="63.623047"/>
      </g>
     </g>
    </g>
    <g id="xtick_9">
     <g id="line2d_17">
      <path d="M 389.952 346.032 
L 389.952 46.656 
" clip-path="url(#pc24bff29a6)" style="fill: none; stroke-dasharray: 2.96,1.28; stroke-dashoffset: 0; stroke: #b0b0b0; stroke-width: 0.8"/>
     </g>
     <g id="line2d_18">
      <g>
       <use xlink:href="#m86265eb0f8" x="389.952" y="346.032" style="stroke: #000000; stroke-width: 0.8"/>
      </g>
     </g>
     <g id="text_9">
      <!-- 15 -->
      <g transform="translate(383.5895 360.630438) scale(0.1 -0.1)">
       <defs>
        <path id="DejaVuSans-35" d="M 691 4666 
L 3169 4666 
L 3169 4134 
L 1269 4134 
L 1269 2991 
Q 1406 3038 1543 3061 
Q 1681 3084 1819 3084 
Q 2600 3084 3056 2656 
Q 3513 2228 3513 1497 
Q 3513 744 3044 326 
Q 2575 -91 1722 -91 
Q 1428 -91 1123 -41 
Q 819 9 494 109 
L 494 744 
Q 775 591 1075 516 
Q 1375 441 1709 441 
Q 2250 441 2565 725 
Q 2881 1009 2881 1497 
Q 2881 1984 2565 2268 
Q 2250 2553 1709 2553 
Q 1456 2553 1204 2497 
Q 953 2441 691 2322 
L 691 4666 
z
" transform="scale(0.015625)"/>
       </defs>
       <use xlink:href="#DejaVuSans-31"/>
       <use xlink:href="#DejaVuSans-35" x="63.623047"/>
      </g>
     </g>
    </g>
    <g id="xtick_10">
     <g id="line2d_19">
      <path d="M 425.664 346.032 
L 425.664 46.656 
" clip-path="url(#pc24bff29a6)" style="fill: none; stroke-dasharray: 2.96,1.28; stroke-dashoffset: 0; stroke: #b0b0b0; stroke-width: 0.8"/>
     </g>
     <g id="line2d_20">
      <g>
       <use xlink:href="#m86265eb0f8" x="425.664" y="346.032" style="stroke: #000000; stroke-width: 0.8"/>
      </g>
     </g>
     <g id="text_10">
      <!-- 16 -->
      <g transform="translate(419.3015 360.630438) scale(0.1 -0.1)">
       <defs>
        <path id="DejaVuSans-36" d="M 2113 2584 
Q 1688 2584 1439 2293 
Q 1191 2003 1191 1497 
Q 1191 994 1439 701 
Q 1688 409 2113 409 
Q 2538 409 2786 701 
Q 3034 994 3034 1497 
Q 3034 2003 2786 2293 
Q 2538 2584 2113 2584 
z
M 3366 4563 
L 3366 3988 
Q 3128 4100 2886 4159 
Q 2644 4219 2406 4219 
Q 1781 4219 1451 3797 
Q 1122 3375 1075 2522 
Q 1259 2794 1537 2939 
Q 1816 3084 2150 3084 
Q 2853 3084 3261 2657 
Q 3669 2231 3669 1497 
Q 3669 778 3244 343 
Q 2819 -91 2113 -91 
Q 1303 -91 875 529 
Q 447 1150 447 2328 
Q 447 3434 972 4092 
Q 1497 4750 2381 4750 
Q 2619 4750 2861 4703 
Q 3103 4656 3366 4563 
z
" transform="scale(0.015625)"/>
       </defs>
       <use xlink:href="#DejaVuSans-31"/>
       <use xlink:href="#DejaVuSans-36" x="63.623047"/>
      </g>
     </g>
    </g>
    <g id="xtick_11">
     <g id="line2d_21">
      <path d="M 461.376 346.032 
L 461.376 46.656 
" clip-path="url(#pc24bff29a6)" style="fill: none; stroke-dasharray: 2.96,1.28; stroke-dashoffset: 0; stroke: #b0b0b0; stroke-width: 0.8"/>
     </g>
     <g id="line2d_22">
      <g>
       <use xlink:href="#m86265eb0f8" x="461.376" y="346.032" style="stroke: #000000; stroke-width: 0.8"/>
      </g>
     </g>
     <g id="text_11">
      <!-- 17 -->
      <g transform="translate(455.0135 360.630438) scale(0.1 -0.1)">
       <use xlink:href="#DejaVuSans-31"/>
       <use xlink:href="#DejaVuSans-37" x="63.623047"/>
      </g>
     </g>
    </g>
    <g id="xtick_12">
     <g id="line2d_23">
      <path d="M 497.088 346.032 
L 497.088 46.656 
" clip-path="url(#pc24bff29a6)" style="fill: none; stroke-dasharray: 2.96,1.28; stroke-dashoffset: 0; stroke: #b0b0b0; stroke-width: 0.8"/>
     </g>
     <g id="line2d_24">
      <g>
       <use xlink:href="#m86265eb0f8" x="497.088" y="346.032" style="stroke: #000000; stroke-width: 0.8"/>
      </g>
     </g>
     <g id="text_12">
      <!-- 18 -->
      <g transform="translate(490.7255 360.630438) scale(0.1 -0.1)">
       <use xlink:href="#DejaVuSans-31"/>
       <use xlink:href="#DejaVuSans-38" x="63.623047"/>
      </g>
     </g>
    </g>
    <g id="xtick_13">
     <g id="line2d_25">
      <path d="M 532.8 346.032 
L 532.8 46.656 
" clip-path="url(#pc24bff29a6)" style="fill: none; stroke-dasharray: 2.96,1.28; stroke-dashoffset: 0; stroke: #b0b0b0; stroke-width: 0.8"/>
     </g>
     <g id="line2d_26">
      <g>
       <use xlink:href="#m86265eb0f8" x="532.8" y="346.032" style="stroke: #000000; stroke-width: 0.8"/>
      </g>
     </g>
     <g id="text_13">
      <!-- 19 -->
      <g transform="translate(526.4375 360.630438) scale(0.1 -0.1)">
       <use xlink:href="#DejaVuSans-31"/>
       <use xlink:href="#DejaVuSans-39" x="63.623047"/>
      </g>
     </g>
    </g>
    <g id="xtick_14">
     <g id="line2d_27">
      <path d="M 568.512 346.032 
L 568.512 46.656 
" clip-path="url(#pc24bff29a6)" style="fill: none; stroke-dasharray: 2.96,1.28; stroke-dashoffset: 0; stroke: #b0b0b0; stroke-width: 0.8"/>
     </g>
     <g id="line2d_28">
      <g>
       <use xlink:href="#m86265eb0f8" x="568.512" y="346.032" style="stroke: #000000; stroke-width: 0.8"/>
      </g>
     </g>
     <g id="text_14">
      <!-- 20 -->
      <g transform="translate(562.1495 360.630438) scale(0.1 -0.1)">
       <use xlink:href="#DejaVuSans-32"/>
       <use xlink:href="#DejaVuSans-30" x="63.623047"/>
      </g>
     </g>
    </g>
    <g id="xtick_15">
     <g id="line2d_29">
      <path d="M 604.224 346.032 
L 604.224 46.656 
" clip-path="url(#pc24bff29a6)" style="fill: none; stroke-dasharray: 2.96,1.28; stroke-dashoffset: 0; stroke: #b0b0b0; stroke-width: 0.8"/>
     </g>
     <g id="line2d_30">
      <g>
       <use xlink:href="#m86265eb0f8" x="604.224" y="346.032" style="stroke: #000000; stroke-width: 0.8"/>
      </g>
     </g>
     <g id="text_15">
      <!-- 21 -->
      <g transform="translate(597.8615 360.630438) scale(0.1 -0.1)">
       <use xlink:href="#DejaVuSans-32"/>
       <use xlink:href="#DejaVuSans-31" x="63.623047"/>
      </g>
     </g>
    </g>
    <g id="text_16">
     <!-- log_2 n -->
     <g transform="translate(336.178281 374.308562) scale(0.1 -0.1)">
      <defs>
       <path id="DejaVuSans-6c" d="M 603 4863 
L 1178 4863 
L 1178 0 
L 603 0 
L 603 4863 
z
" transform="scale(0.015625)"/>
       <path id="DejaVuSans-6f" d="M 1959 3097 
Q 1497 3097 1228 2736 
Q 959 2375 959 1747 
Q 959 1119 1226 758 
Q 1494 397 1959 397 
Q 2419 397 2687 759 
Q 2956 1122 2956 1747 
Q 2956 2369 2687 2733 
Q 2419 3097 1959 3097 
z
M 1959 3584 
Q 2709 3584 3137 3096 
Q 3566 2609 3566 1747 
Q 3566 888 3137 398 
Q 2709 -91 1959 -91 
Q 1206 -91 779 398 
Q 353 888 353 1747 
Q 353 2609 779 3096 
Q 1206 3584 1959 3584 
z
" transform="scale(0.015625)"/>
       <path id="DejaVuSans-67" d="M 2906 1791 
Q 2906 2416 2648 2759 
Q 2391 3103 1925 3103 
Q 1463 3103 1205 2759 
Q 947 2416 947 1791 
Q 947 1169 1205 825 
Q 1463 481 1925 481 
Q 2391 481 2648 825 
Q 2906 1169 2906 1791 
z
M 3481 434 
Q 3481 -459 3084 -895 
Q 2688 -1331 1869 -1331 
Q 1566 -1331 1297 -1286 
Q 1028 -1241 775 -1147 
L 775 -588 
Q 1028 -725 1275 -790 
Q 1522 -856 1778 -856 
Q 2344 -856 2625 -561 
Q 2906 -266 2906 331 
L 2906 616 
Q 2728 306 2450 153 
Q 2172 0 1784 0 
Q 1141 0 747 490 
Q 353 981 353 1791 
Q 353 2603 747 3093 
Q 1141 3584 1784 3584 
Q 2172 3584 2450 3431 
Q 2728 3278 2906 2969 
L 2906 3500 
L 3481 3500 
L 3481 434 
z
" transform="scale(0.015625)"/>
       <path id="DejaVuSans-5f" d="M 3263 -1063 
L 3263 -1509 
L -63 -1509 
L -63 -1063 
L 3263 -1063 
z
" transform="scale(0.015625)"/>
       <path id="DejaVuSans-20" transform="scale(0.015625)"/>
       <path id="DejaVuSans-6e" d="M 3513 2113 
L 3513 0 
L 2938 0 
L 2938 2094 
Q 2938 2591 2744 2837 
Q 2550 3084 2163 3084 
Q 1697 3084 1428 2787 
Q 1159 2491 1159 1978 
L 1159 0 
L 581 0 
L 581 3500 
L 1159 3500 
L 1159 2956 
Q 1366 3272 1645 3428 
Q 1925 3584 2291 3584 
Q 2894 3584 3203 3211 
Q 3513 2838 3513 2113 
z
" transform="scale(0.015625)"/>
      </defs>
      <use xlink:href="#DejaVuSans-6c"/>
      <use xlink:href="#DejaVuSans-6f" x="27.783203"/>
      <use xlink:href="#DejaVuSans-67" x="88.964844"/>
      <use xlink:href="#DejaVuSans-5f" x="152.441406"/>
      <use xlink:href="#DejaVuSans-32" x="202.441406"/>
      <use xlink:href="#DejaVuSans-20" x="266.064453"/>
      <use xlink:href="#DejaVuSans-6e" x="297.851562"/>
     </g>
    </g>
   </g>
   <g id="matplotlib.axis_2">
    <g id="ytick_1">
     <g id="line2d_31">
      <path d="M 86.4 337.226824 
L 622.08 337.226824 
" clip-path="url(#pc24bff29a6)" style="fill: none; stroke-dasharray: 2.96,1.28; stroke-dashoffset: 0; stroke: #b0b0b0; stroke-width: 0.8"/>
     </g>
     <g id="line2d_32">
      <defs>
       <path id="m0b0794c875" d="M 0 0 
L -3.5 0 
" style="stroke: #000000; stroke-width: 0.8"/>
      </defs>
      <g>
       <use xlink:href="#m0b0794c875" x="86.4" y="337.226824" style="stroke: #000000; stroke-width: 0.8"/>
      </g>
     </g>
     <g id="text_17">
      <!-- 0 -->
      <g transform="translate(73.0375 341.026042) scale(0.1 -0.1)">
       <use xlink:href="#DejaVuSans-30"/>
      </g>
     </g>
    </g>
    <g id="ytick_2">
     <g id="line2d_33">
      <path d="M 86.4 302.006118 
L 622.08 302.006118 
" clip-path="url(#pc24bff29a6)" style="fill: none; stroke-dasharray: 2.96,1.28; stroke-dashoffset: 0; stroke: #b0b0b0; stroke-width: 0.8"/>
     </g>
     <g id="line2d_34">
      <g>
       <use xlink:href="#m0b0794c875" x="86.4" y="302.006118" style="stroke: #000000; stroke-width: 0.8"/>
      </g>
     </g>
     <g id="text_18">
      <!-- 2 -->
      <g transform="translate(73.0375 305.805336) scale(0.1 -0.1)">
       <use xlink:href="#DejaVuSans-32"/>
      </g>
     </g>
    </g>
    <g id="ytick_3">
     <g id="line2d_35">
      <path d="M 86.4 266.785412 
L 622.08 266.785412 
" clip-path="url(#pc24bff29a6)" style="fill: none; stroke-dasharray: 2.96,1.28; stroke-dashoffset: 0; stroke: #b0b0b0; stroke-width: 0.8"/>
     </g>
     <g id="line2d_36">
      <g>
       <use xlink:href="#m0b0794c875" x="86.4" y="266.785412" style="stroke: #000000; stroke-width: 0.8"/>
      </g>
     </g>
     <g id="text_19">
      <!-- 4 -->
      <g transform="translate(73.0375 270.584631) scale(0.1 -0.1)">
       <use xlink:href="#DejaVuSans-34"/>
      </g>
     </g>
    </g>
    <g id="ytick_4">
     <g id="line2d_37">
      <path d="M 86.4 231.564706 
L 622.08 231.564706 
" clip-path="url(#pc24bff29a6)" style="fill: none; stroke-dasharray: 2.96,1.28; stroke-dashoffset: 0; stroke: #b0b0b0; stroke-width: 0.8"/>
     </g>
     <g id="line2d_38">
      <g>
       <use xlink:href="#m0b0794c875" x="86.4" y="231.564706" style="stroke: #000000; stroke-width: 0.8"/>
      </g>
     </g>
     <g id="text_20">
      <!-- 6 -->
      <g transform="translate(73.0375 235.363925) scale(0.1 -0.1)">
       <use xlink:href="#DejaVuSans-36"/>
      </g>
     </g>
    </g>
    <g id="ytick_5">
     <g id="line2d_39">
      <path d="M 86.4 196.344 
L 622.08 196.344 
" clip-path="url(#pc24bff29a6)" style="fill: none; stroke-dasharray: 2.96,1.28; stroke-dashoffset: 0; stroke: #b0b0b0; stroke-width: 0.8"/>
     </g>
     <g id="line2d_40">
      <g>
       <use xlink:href="#m0b0794c875" x="86.4" y="196.344" style="stroke: #000000; stroke-width: 0.8"/>
      </g>
     </g>
     <g id="text_21">
      <!-- 8 -->
      <g transform="translate(73.0375 200.143219) scale(0.1 -0.1)">
       <use xlink:href="#DejaVuSans-38"/>
      </g>
     </g>
    </g>
    <g id="ytick_6">
     <g id="line2d_41">
      <path d="M 86.4 161.123294 
L 622.08 161.123294 
" clip-path="url(#pc24bff29a6)" style="fill: none; stroke-dasharray: 2.96,1.28; stroke-dashoffset: 0; stroke: #b0b0b0; stroke-width: 0.8"/>
     </g>
     <g id="line2d_42">
      <g>
       <use xlink:href="#m0b0794c875" x="86.4" y="161.123294" style="stroke: #000000; stroke-width: 0.8"/>
      </g>
     </g>
     <g id="text_22">
      <!-- 10 -->
      <g transform="translate(66.675 164.922513) scale(0.1 -0.1)">
       <use xlink:href="#DejaVuSans-31"/>
       <use xlink:href="#DejaVuSans-30" x="63.623047"/>
      </g>
     </g>
    </g>
    <g id="ytick_7">
     <g id="line2d_43">
      <path d="M 86.4 125.902588 
L 622.08 125.902588 
" clip-path="url(#pc24bff29a6)" style="fill: none; stroke-dasharray: 2.96,1.28; stroke-dashoffset: 0; stroke: #b0b0b0; stroke-width: 0.8"/>
     </g>
     <g id="line2d_44">
      <g>
       <use xlink:href="#m0b0794c875" x="86.4" y="125.902588" style="stroke: #000000; stroke-width: 0.8"/>
      </g>
     </g>
     <g id="text_23">
      <!-- 12 -->
      <g transform="translate(66.675 129.701807) scale(0.1 -0.1)">
       <use xlink:href="#DejaVuSans-31"/>
       <use xlink:href="#DejaVuSans-32" x="63.623047"/>
      </g>
     </g>
    </g>
    <g id="ytick_8">
     <g id="line2d_45">
      <path d="M 86.4 90.681882 
L 622.08 90.681882 
" clip-path="url(#pc24bff29a6)" style="fill: none; stroke-dasharray: 2.96,1.28; stroke-dashoffset: 0; stroke: #b0b0b0; stroke-width: 0.8"/>
     </g>
     <g id="line2d_46">
      <g>
       <use xlink:href="#m0b0794c875" x="86.4" y="90.681882" style="stroke: #000000; stroke-width: 0.8"/>
      </g>
     </g>
     <g id="text_24">
      <!-- 14 -->
      <g transform="translate(66.675 94.481101) scale(0.1 -0.1)">
       <use xlink:href="#DejaVuSans-31"/>
       <use xlink:href="#DejaVuSans-34" x="63.623047"/>
      </g>
     </g>
    </g>
    <g id="ytick_9">
     <g id="line2d_47">
      <path d="M 86.4 55.461176 
L 622.08 55.461176 
" clip-path="url(#pc24bff29a6)" style="fill: none; stroke-dasharray: 2.96,1.28; stroke-dashoffset: 0; stroke: #b0b0b0; stroke-width: 0.8"/>
     </g>
     <g id="line2d_48">
      <g>
       <use xlink:href="#m0b0794c875" x="86.4" y="55.461176" style="stroke: #000000; stroke-width: 0.8"/>
      </g>
     </g>
     <g id="text_25">
      <!-- 16 -->
      <g transform="translate(66.675 59.260395) scale(0.1 -0.1)">
       <use xlink:href="#DejaVuSans-31"/>
       <use xlink:href="#DejaVuSans-36" x="63.623047"/>
      </g>
     </g>
    </g>
    <g id="text_26">
     <!-- elements per ns -->
     <g transform="translate(60.595312 236.824469) rotate(-90) scale(0.1 -0.1)">
      <defs>
       <path id="DejaVuSans-65" d="M 3597 1894 
L 3597 1613 
L 953 1613 
Q 991 1019 1311 708 
Q 1631 397 2203 397 
Q 2534 397 2845 478 
Q 3156 559 3463 722 
L 3463 178 
Q 3153 47 2828 -22 
Q 2503 -91 2169 -91 
Q 1331 -91 842 396 
Q 353 884 353 1716 
Q 353 2575 817 3079 
Q 1281 3584 2069 3584 
Q 2775 3584 3186 3129 
Q 3597 2675 3597 1894 
z
M 3022 2063 
Q 3016 2534 2758 2815 
Q 2500 3097 2075 3097 
Q 1594 3097 1305 2825 
Q 1016 2553 972 2059 
L 3022 2063 
z
" transform="scale(0.015625)"/>
       <path id="DejaVuSans-6d" d="M 3328 2828 
Q 3544 3216 3844 3400 
Q 4144 3584 4550 3584 
Q 5097 3584 5394 3201 
Q 5691 2819 5691 2113 
L 5691 0 
L 5113 0 
L 5113 2094 
Q 5113 2597 4934 2840 
Q 4756 3084 4391 3084 
Q 3944 3084 3684 2787 
Q 3425 2491 3425 1978 
L 3425 0 
L 2847 0 
L 2847 2094 
Q 2847 2600 2669 2842 
Q 2491 3084 2119 3084 
Q 1678 3084 1418 2786 
Q 1159 2488 1159 1978 
L 1159 0 
L 581 0 
L 581 3500 
L 1159 3500 
L 1159 2956 
Q 1356 3278 1631 3431 
Q 1906 3584 2284 3584 
Q 2666 3584 2933 3390 
Q 3200 3197 3328 2828 
z
" transform="scale(0.015625)"/>
       <path id="DejaVuSans-74" d="M 1172 4494 
L 1172 3500 
L 2356 3500 
L 2356 3053 
L 1172 3053 
L 1172 1153 
Q 1172 725 1289 603 
Q 1406 481 1766 481 
L 2356 481 
L 2356 0 
L 1766 0 
Q 1100 0 847 248 
Q 594 497 594 1153 
L 594 3053 
L 172 3053 
L 172 3500 
L 594 3500 
L 594 4494 
L 1172 4494 
z
" transform="scale(0.015625)"/>
       <path id="DejaVuSans-73" d="M 2834 3397 
L 2834 2853 
Q 2591 2978 2328 3040 
Q 2066 3103 1784 3103 
Q 1356 3103 1142 2972 
Q 928 2841 928 2578 
Q 928 2378 1081 2264 
Q 1234 2150 1697 2047 
L 1894 2003 
Q 2506 1872 2764 1633 
Q 3022 1394 3022 966 
Q 3022 478 2636 193 
Q 2250 -91 1575 -91 
Q 1294 -91 989 -36 
Q 684 19 347 128 
L 347 722 
Q 666 556 975 473 
Q 1284 391 1588 391 
Q 1994 391 2212 530 
Q 2431 669 2431 922 
Q 2431 1156 2273 1281 
Q 2116 1406 1581 1522 
L 1381 1569 
Q 847 1681 609 1914 
Q 372 2147 372 2553 
Q 372 3047 722 3315 
Q 1072 3584 1716 3584 
Q 2034 3584 2315 3537 
Q 2597 3491 2834 3397 
z
" transform="scale(0.015625)"/>
       <path id="DejaVuSans-70" d="M 1159 525 
L 1159 -1331 
L 581 -1331 
L 581 3500 
L 1159 3500 
L 1159 2969 
Q 1341 3281 1617 3432 
Q 1894 3584 2278 3584 
Q 2916 3584 3314 3078 
Q 3713 2572 3713 1747 
Q 3713 922 3314 415 
Q 2916 -91 2278 -91 
Q 1894 -91 1617 61 
Q 1341 213 1159 525 
z
M 3116 1747 
Q 3116 2381 2855 2742 
Q 2594 3103 2138 3103 
Q 1681 3103 1420 2742 
Q 1159 2381 1159 1747 
Q 1159 1113 1420 752 
Q 1681 391 2138 391 
Q 2594 391 2855 752 
Q 3116 1113 3116 1747 
z
" transform="scale(0.015625)"/>
       <path id="DejaVuSans-72" d="M 2631 2963 
Q 2534 3019 2420 3045 
Q 2306 3072 2169 3072 
Q 1681 3072 1420 2755 
Q 1159 2438 1159 1844 
L 1159 0 
L 581 0 
L 581 3500 
L 1159 3500 
L 1159 2956 
Q 1341 3275 1631 3429 
Q 1922 3584 2338 3584 
Q 2397 3584 2469 3576 
Q 2541 3569 2628 3553 
L 2631 2963 
z
" transform="scale(0.015625)"/>
      </defs>
      <use xlink:href="#DejaVuSans-65"/>
      <use xlink:href="#DejaVuSans-6c" x="61.523438"/>
      <use xlink:href="#DejaVuSans-65" x="89.306641"/>
      <use xlink:href="#DejaVuSans-6d" x="150.830078"/>
      <use xlink:href="#DejaVuSans-65" x="248.242188"/>
      <use xlink:href="#DejaVuSans-6e" x="309.765625"/>
      <use xlink:href="#DejaVuSans-74" x="373.144531"/>
      <use xlink:href="#DejaVuSans-73" x="412.353516"/>
      <use xlink:href="#DejaVuSans-20" x="464.453125"/>
      <use xlink:href="#DejaVuSans-70" x="496.240234"/>
      <use xlink:href="#DejaVuSans-65" x="559.716797"/>
      <use xlink:href="#DejaVuSans-72" x="621.240234"/>
      <use xlink:href="#DejaVuSans-20" x="662.353516"/>
      <use xlink:href="#DejaVuSans-6e" x="694.140625"/>
      <use xlink:href="#DejaVuSans-73" x="757.519531"/>
     </g>
    </g>
   </g>
   <g id="line2d_49">
    <path d="M 318.528 346.032 
L 318.528 46.656 
" clip-path="url(#pc24bff29a6)" style="fill: none; stroke-dasharray: 5.55,2.4; stroke-dashoffset: 0; stroke: #1f77b4; stroke-width: 1.5"/>
   </g>
   <g id="line2d_50">
    <path d="M 497.088 346.032 
L 497.088 46.656 
" clip-path="url(#pc24bff29a6)" style="fill: none; stroke-dasharray: 5.55,2.4; stroke-dashoffset: 0; stroke: #1f77b4; stroke-width: 1.5"/>
   </g>
   <g id="line2d_51">
    <path d="M 604.224 346.032 
L 604.224 46.656 
" clip-path="url(#pc24bff29a6)" style="fill: none; stroke-dasharray: 5.55,2.4; stroke-dashoffset: 0; stroke: #1f77b4; stroke-width: 1.5"/>
   </g>
   <g id="line2d_52">
    <path d="M 104.256 323.860158 
L 110.324362 324.586574 
L 116.073704 324.607279 
L 122.106496 324.624731 
L 128.016476 324.7441 
L 134.000168 325.26229 
L 139.968 325.720109 
L 145.857156 326.203903 
L 151.94546 326.419326 
L 157.818496 326.694838 
L 163.728476 326.867017 
L 169.712168 327.07604 
L 175.68 327.240165 
L 181.658837 327.413904 
L 187.577644 327.546142 
L 193.530496 327.643595 
L 199.503887 327.770195 
L 205.424168 327.813183 
L 211.392 327.898299 
L 217.326016 327.983833 
L 223.289644 328.016136 
L 229.242496 328.070162 
L 235.184192 328.134336 
L 241.164407 328.153538 
L 247.104 328.210873 
L 253.060431 328.217642 
L 259.001644 328.246602 
L 264.954496 328.28386 
L 270.912042 328.288497 
L 276.862289 328.307665 
L 282.816 328.335509 
L 288.772431 328.334272 
L 294.723628 328.352778 
L 300.675391 328.365505 
L 306.624042 328.370811 
L 312.574289 328.383213 
L 318.528 328.394423 
L 324.478828 328.398511 
L 330.430636 328.409728 
L 336.382944 328.412646 
L 342.336042 328.414307 
L 348.286289 328.422513 
L 354.24 328.424718 
L 360.190828 328.429088 
L 366.145132 328.431997 
L 372.094944 328.432491 
L 378.048042 328.437178 
L 384.000054 328.440431 
L 389.952 328.443077 
L 395.904229 328.446937 
L 401.855884 328.448024 
L 407.808056 328.448377 
L 413.760042 328.450696 
L 419.712054 328.452203 
L 425.664 328.452951 
L 431.616229 328.454743 
L 437.567884 328.457793 
L 443.520056 328.454324 
L 449.472042 328.458787 
L 455.424054 328.457985 
L 461.376 328.462187 
L 467.327879 328.466547 
L 473.279884 328.468056 
L 479.232056 328.470428 
L 485.184042 328.487893 
L 491.136054 328.490047 
L 497.088 328.47786 
L 503.040054 328.483756 
L 508.99204 328.490295 
L 514.944056 328.490152 
L 520.896042 328.503768 
L 526.848054 328.505098 
L 532.8 328.50205 
L 538.751967 328.515049 
L 544.703962 328.506995 
L 550.655986 328.516617 
L 556.60798 328.548397 
L 562.559999 328.59845 
L 568.512 328.650398 
L 574.46401 328.667465 
L 580.416001 328.697863 
L 586.367986 328.698391 
L 592.320011 328.726648 
L 598.271999 328.754977 
L 604.224 328.81865 
" clip-path="url(#pc24bff29a6)" style="fill: none; stroke: #1f77b4; stroke-width: 1.5; stroke-linecap: square"/>
   </g>
   <g id="line2d_53">
    <path d="M 104.256 313.245639 
L 110.324362 311.397824 
L 116.073704 309.482443 
L 122.106496 307.27407 
L 128.016476 304.909596 
L 134.000168 303.353884 
L 139.968 301.634762 
L 145.857156 299.758087 
L 151.94546 297.48115 
L 157.818496 295.118886 
L 163.728476 293.554859 
L 169.712168 291.579466 
L 175.68 290.29815 
L 181.658837 288.692693 
L 187.577644 286.724035 
L 193.530496 285.13617 
L 199.503887 283.2273 
L 205.424168 282.410016 
L 211.392 281.046862 
L 217.326016 279.301013 
L 223.289644 278.262442 
L 229.242496 277.397066 
L 235.184192 276.299453 
L 241.164407 275.677696 
L 247.104 274.873931 
L 253.060431 273.828397 
L 259.001644 273.340811 
L 264.954496 272.771445 
L 270.912042 272.096551 
L 276.862289 271.692504 
L 282.816 271.173795 
L 288.772431 270.752305 
L 294.723628 270.352175 
L 300.675391 269.989226 
L 306.624042 269.656399 
L 312.574289 269.412394 
L 318.528 269.197071 
L 324.478828 268.904991 
L 330.430636 268.795641 
L 336.382944 268.500781 
L 342.336042 268.293704 
L 348.286289 268.250533 
L 354.24 268.109732 
L 360.190828 267.995064 
L 366.145132 267.888473 
L 372.094944 267.790381 
L 378.048042 267.683015 
L 384.000054 267.685074 
L 389.952 267.596452 
L 395.904229 267.458935 
L 401.855884 267.496291 
L 407.808056 267.396222 
L 413.760042 267.358769 
L 419.712054 267.326285 
L 425.664 267.289649 
L 431.616229 267.283319 
L 437.567884 267.243226 
L 443.520056 267.260499 
L 449.472042 267.22828 
L 455.424054 267.269344 
L 461.376 267.17739 
L 467.327879 267.179371 
L 473.279884 267.134385 
L 479.232056 267.185855 
L 485.184042 267.187755 
L 491.136054 267.292902 
L 497.088 267.248066 
L 503.040054 267.194508 
L 508.99204 267.306859 
L 514.944056 268.630271 
L 520.896042 269.243984 
L 526.848054 273.132512 
L 532.8 276.515446 
L 538.751967 276.706509 
L 544.703962 276.438094 
L 550.655986 277.40227 
L 556.60798 277.671502 
L 562.559999 277.276123 
L 568.512 279.32706 
L 574.46401 279.127662 
L 580.416001 280.900915 
L 586.367986 283.78053 
L 592.320011 285.40192 
L 598.271999 288.59526 
L 604.224 290.909226 
" clip-path="url(#pc24bff29a6)" style="fill: none; stroke: #ff7f0e; stroke-width: 1.5; stroke-linecap: square"/>
   </g>
   <g id="line2d_54">
    <path d="M 104.256 313.597883 
L 110.324362 311.962473 
L 116.073704 309.805832 
L 122.106496 307.862358 
L 128.016476 305.19927 
L 134.000168 303.644682 
L 139.968 301.906446 
L 145.857156 300.000036 
L 151.94546 297.663073 
L 157.818496 295.244469 
L 163.728476 293.877578 
L 169.712168 291.644373 
L 175.68 290.291924 
L 181.658837 288.613088 
L 187.577644 286.641106 
L 193.530496 285.37134 
L 199.503887 283.162006 
L 205.424168 282.57437 
L 211.392 281.059853 
L 217.326016 279.363139 
L 223.289644 278.300004 
L 229.242496 277.410962 
L 235.184192 276.487942 
L 241.164407 275.717419 
L 247.104 274.889957 
L 253.060431 273.986954 
L 259.001644 273.431067 
L 264.954496 272.883347 
L 270.912042 272.286723 
L 276.862289 271.675834 
L 282.816 271.20805 
L 288.772431 270.779685 
L 294.723628 270.267488 
L 300.675391 270.01241 
L 306.624042 269.656663 
L 312.574289 269.404391 
L 318.528 269.185584 
L 324.478828 268.921874 
L 330.430636 268.791692 
L 336.382944 268.568908 
L 342.336042 268.36213 
L 348.286289 268.224915 
L 354.24 268.147956 
L 360.190828 267.995109 
L 366.145132 267.86267 
L 372.094944 267.796416 
L 378.048042 267.759811 
L 384.000054 267.71887 
L 389.952 267.656878 
L 395.904229 267.539811 
L 401.855884 267.441944 
L 407.808056 267.506892 
L 413.760042 267.387669 
L 419.712054 267.391893 
L 425.664 267.369284 
L 431.616229 267.358468 
L 437.567884 267.34379 
L 443.520056 267.320615 
L 449.472042 267.301098 
L 455.424054 267.28751 
L 461.376 267.264744 
L 467.327879 267.276011 
L 473.279884 267.272015 
L 479.232056 267.283971 
L 485.184042 267.260916 
L 491.136054 267.263292 
L 497.088 267.312739 
L 503.040054 267.364581 
L 508.99204 267.555097 
L 514.944056 268.536572 
L 520.896042 271.082817 
L 526.848054 276.385612 
L 532.8 278.738661 
L 538.751967 276.295032 
L 544.703962 277.341273 
L 550.655986 278.798268 
L 556.60798 277.465087 
L 562.559999 278.31277 
L 568.512 281.06317 
L 574.46401 279.798007 
L 580.416001 282.490664 
L 586.367986 283.190562 
L 592.320011 286.129653 
L 598.271999 288.957464 
L 604.224 292.428352 
" clip-path="url(#pc24bff29a6)" style="fill: none; stroke: #2ca02c; stroke-width: 1.5; stroke-linecap: square"/>
   </g>
   <g id="line2d_55">
    <path d="M 104.256 304.032374 
L 110.324362 299.893003 
L 116.073704 295.514674 
L 122.106496 290.199552 
L 128.016476 287.723926 
L 134.000168 281.182699 
L 139.968 278.350793 
L 145.857156 270.205665 
L 151.94546 267.082465 
L 157.818496 257.355518 
L 163.728476 251.478536 
L 169.712168 247.856925 
L 175.68 241.363999 
L 181.658837 234.283923 
L 187.577644 226.894718 
L 193.530496 214.251826 
L 199.503887 205.397812 
L 205.424168 204.169573 
L 211.392 200.266409 
L 217.326016 191.35356 
L 223.289644 194.93506 
L 229.242496 183.696655 
L 235.184192 185.9507 
L 241.164407 181.95198 
L 247.104 164.158799 
L 253.060431 174.975747 
L 259.001644 177.078705 
L 264.954496 145.815499 
L 270.912042 169.494577 
L 276.862289 171.387558 
L 282.816 124.133406 
L 288.772431 164.79789 
L 294.723628 165.88423 
L 300.675391 162.693985 
L 306.624042 160.35272 
L 312.574289 162.130618 
L 318.528 101.044315 
L 324.478828 158.224431 
L 330.430636 158.962007 
L 336.382944 162.179349 
L 342.336042 236.047774 
L 348.286289 246.595478 
L 354.24 204.992173 
L 360.190828 246.006105 
L 366.145132 245.867644 
L 372.094944 245.99964 
L 378.048042 245.872548 
L 384.000054 245.939432 
L 389.952 204.893396 
L 395.904229 245.906296 
L 401.855884 250.553631 
L 407.808056 246.24175 
L 413.760042 203.940089 
L 419.712054 245.979393 
L 425.664 204.703574 
L 431.616229 246.077021 
L 437.567884 246.183253 
L 443.520056 246.229662 
L 449.472042 204.310624 
L 455.424054 246.229758 
L 461.376 207.924771 
L 467.327879 246.393851 
L 473.279884 246.26344 
L 479.232056 246.272961 
L 485.184042 204.101969 
L 491.136054 246.572461 
L 497.088 213.894983 
L 503.040054 249.885613 
L 508.99204 254.916118 
L 514.944056 261.879335 
L 520.896042 267.634056 
L 526.848054 274.220003 
L 532.8 276.460369 
L 538.751967 276.577368 
L 544.703962 276.271843 
L 550.655986 277.330539 
L 556.60798 276.384592 
L 562.559999 277.677355 
L 568.512 279.714786 
L 574.46401 279.249011 
L 580.416001 281.096394 
L 586.367986 283.377465 
L 592.320011 283.622029 
L 598.271999 287.305448 
L 604.224 289.383815 
" clip-path="url(#pc24bff29a6)" style="fill: none; stroke: #d62728; stroke-width: 1.5; stroke-linecap: square"/>
   </g>
   <g id="line2d_56">
    <path d="M 104.256 304.004671 
L 110.324362 299.868804 
L 116.073704 295.376433 
L 122.106496 290.201779 
L 128.016476 287.719557 
L 134.000168 280.853757 
L 139.968 278.371306 
L 145.857156 270.276286 
L 151.94546 267.162602 
L 157.818496 258.547605 
L 163.728476 252.263764 
L 169.712168 247.778582 
L 175.68 241.676285 
L 181.658837 234.713226 
L 187.577644 226.610768 
L 193.530496 215.789981 
L 199.503887 210.149194 
L 205.424168 221.565113 
L 211.392 208.623004 
L 217.326016 189.652645 
L 223.289644 200.043848 
L 229.242496 187.488782 
L 235.184192 188.770079 
L 241.164407 184.751271 
L 247.104 185.73463 
L 253.060431 180.118317 
L 259.001644 175.186198 
L 264.954496 178.16852 
L 270.912042 174.773875 
L 276.862289 173.41952 
L 282.816 171.085501 
L 288.772431 167.746857 
L 294.723628 164.901775 
L 300.675391 164.641357 
L 306.624042 161.44334 
L 312.574289 162.991614 
L 318.528 162.665804 
L 324.478828 159.202821 
L 330.430636 158.990912 
L 336.382944 165.300183 
L 342.336042 242.808267 
L 348.286289 251.32729 
L 354.24 252.336948 
L 360.190828 251.784452 
L 366.145132 251.354666 
L 372.094944 250.896106 
L 378.048042 250.817444 
L 384.000054 250.795474 
L 389.952 251.942055 
L 395.904229 246.277769 
L 401.855884 250.710469 
L 407.808056 250.560223 
L 413.760042 250.730401 
L 419.712054 250.538173 
L 425.664 251.710087 
L 431.616229 250.646162 
L 437.567884 250.526556 
L 443.520056 250.55274 
L 449.472042 250.812599 
L 455.424054 251.831425 
L 461.376 251.936687 
L 467.327879 250.856493 
L 473.279884 250.586909 
L 479.232056 250.480323 
L 485.184042 250.600151 
L 491.136054 252.808978 
L 497.088 255.6368 
L 503.040054 255.83145 
L 508.99204 261.143954 
L 514.944056 266.985151 
L 520.896042 270.28499 
L 526.848054 274.634399 
L 532.8 277.997996 
L 538.751967 276.153213 
L 544.703962 277.141841 
L 550.655986 278.665988 
L 556.60798 276.97818 
L 562.559999 277.123384 
L 568.512 280.755765 
L 574.46401 279.45619 
L 580.416001 281.328458 
L 586.367986 282.868762 
L 592.320011 285.950755 
L 598.271999 287.388052 
L 604.224 291.533721 
" clip-path="url(#pc24bff29a6)" style="fill: none; stroke: #9467bd; stroke-width: 1.5; stroke-linecap: square"/>
   </g>
   <g id="line2d_57">
    <path d="M 104.256 308.561869 
L 110.324362 305.41503 
L 116.073704 302.574583 
L 122.106496 300.142952 
L 128.016476 294.840559 
L 134.000168 292.147333 
L 139.968 285.771063 
L 145.857156 279.982251 
L 151.94546 282.9552 
L 157.818496 273.265554 
L 163.728476 267.803348 
L 169.712168 262.576051 
L 175.68 255.322283 
L 181.658837 241.719938 
L 187.577644 247.574369 
L 193.530496 240.910181 
L 199.503887 235.409722 
L 205.424168 222.276277 
L 211.392 221.075557 
L 217.326016 220.882095 
L 223.289644 216.290438 
L 229.242496 206.845898 
L 235.184192 201.053178 
L 241.164407 200.696527 
L 247.104 175.972924 
L 253.060431 193.431202 
L 259.001644 187.404036 
L 264.954496 148.806569 
L 270.912042 184.581466 
L 276.862289 181.160837 
L 282.816 135.509939 
L 288.772431 173.67769 
L 294.723628 174.61069 
L 300.675391 170.096176 
L 306.624042 167.525065 
L 312.574289 171.060619 
L 318.528 108.922043 
L 324.478828 166.319457 
L 330.430636 162.543976 
L 336.382944 173.689494 
L 342.336042 223.82781 
L 348.286289 236.453874 
L 354.24 213.005378 
L 360.190828 230.903993 
L 366.145132 230.553012 
L 372.094944 230.161639 
L 378.048042 230.056512 
L 384.000054 231.373102 
L 389.952 211.032381 
L 395.904229 229.493999 
L 401.855884 232.422123 
L 407.808056 229.4832 
L 413.760042 209.782153 
L 419.712054 229.320428 
L 425.664 209.933104 
L 431.616229 228.851382 
L 437.567884 228.937098 
L 443.520056 230.157042 
L 449.472042 209.221264 
L 455.424054 229.010158 
L 461.376 209.563775 
L 467.327879 228.827198 
L 473.279884 228.646245 
L 479.232056 229.14853 
L 485.184042 209.165613 
L 491.136054 230.982957 
L 497.088 217.429459 
L 503.040054 241.629848 
L 508.99204 249.634035 
L 514.944056 256.877276 
L 520.896042 263.44115 
L 526.848054 271.381868 
L 532.8 273.624383 
L 538.751967 275.625422 
L 544.703962 276.067394 
L 550.655986 277.127181 
L 556.60798 276.557913 
L 562.559999 277.376848 
L 568.512 278.751899 
L 574.46401 279.099121 
L 580.416001 280.530411 
L 586.367986 282.681167 
L 592.320011 283.082804 
L 598.271999 286.564868 
L 604.224 288.51987 
" clip-path="url(#pc24bff29a6)" style="fill: none; stroke: #8c564b; stroke-width: 1.5; stroke-linecap: square"/>
   </g>
   <g id="patch_3">
    <path d="M 86.4 346.032 
L 86.4 46.656 
" style="fill: none; stroke: #000000; stroke-width: 0.8; stroke-linejoin: miter; stroke-linecap: square"/>
   </g>
   <g id="patch_4">
    <path d="M 622.08 346.032 
L 622.08 46.656 
" style="fill: none; stroke: #000000; stroke-width: 0.8; stroke-linejoin: miter; stroke-linecap: square"/>
   </g>
   <g id="patch_5">
    <path d="M 86.4 346.032 
L 622.08 346.032 
" style="fill: none; stroke: #000000; stroke-width: 0.8; stroke-linejoin: miter; stroke-linecap: square"/>
   </g>
   <g id="patch_6">
    <path d="M 86.4 46.656 
L 622.08 46.656 
" style="fill: none; stroke: #000000; stroke-width: 0.8; stroke-linejoin: miter; stroke-linecap: square"/>
   </g>
   <g id="text_27">
    <!-- compile: g++ B.cpp -o B -std=c++23 -O2 -mavx2 -->
    <g transform="translate(203.405625 27.218625) scale(0.12 -0.12)">
     <defs>
      <path id="DejaVuSans-63" d="M 3122 3366 
L 3122 2828 
Q 2878 2963 2633 3030 
Q 2388 3097 2138 3097 
Q 1578 3097 1268 2742 
Q 959 2388 959 1747 
Q 959 1106 1268 751 
Q 1578 397 2138 397 
Q 2388 397 2633 464 
Q 2878 531 3122 666 
L 3122 134 
Q 2881 22 2623 -34 
Q 2366 -91 2075 -91 
Q 1284 -91 818 406 
Q 353 903 353 1747 
Q 353 2603 823 3093 
Q 1294 3584 2113 3584 
Q 2378 3584 2631 3529 
Q 2884 3475 3122 3366 
z
" transform="scale(0.015625)"/>
      <path id="DejaVuSans-69" d="M 603 3500 
L 1178 3500 
L 1178 0 
L 603 0 
L 603 3500 
z
M 603 4863 
L 1178 4863 
L 1178 4134 
L 603 4134 
L 603 4863 
z
" transform="scale(0.015625)"/>
      <path id="DejaVuSans-3a" d="M 750 794 
L 1409 794 
L 1409 0 
L 750 0 
L 750 794 
z
M 750 3309 
L 1409 3309 
L 1409 2516 
L 750 2516 
L 750 3309 
z
" transform="scale(0.015625)"/>
      <path id="DejaVuSans-2b" d="M 2944 4013 
L 2944 2272 
L 4684 2272 
L 4684 1741 
L 2944 1741 
L 2944 0 
L 2419 0 
L 2419 1741 
L 678 1741 
L 678 2272 
L 2419 2272 
L 2419 4013 
L 2944 4013 
z
" transform="scale(0.015625)"/>
      <path id="DejaVuSans-42" d="M 1259 2228 
L 1259 519 
L 2272 519 
Q 2781 519 3026 730 
Q 3272 941 3272 1375 
Q 3272 1813 3026 2020 
Q 2781 2228 2272 2228 
L 1259 2228 
z
M 1259 4147 
L 1259 2741 
L 2194 2741 
Q 2656 2741 2882 2914 
Q 3109 3088 3109 3444 
Q 3109 3797 2882 3972 
Q 2656 4147 2194 4147 
L 1259 4147 
z
M 628 4666 
L 2241 4666 
Q 2963 4666 3353 4366 
Q 3744 4066 3744 3513 
Q 3744 3084 3544 2831 
Q 3344 2578 2956 2516 
Q 3422 2416 3680 2098 
Q 3938 1781 3938 1306 
Q 3938 681 3513 340 
Q 3088 0 2303 0 
L 628 0 
L 628 4666 
z
" transform="scale(0.015625)"/>
      <path id="DejaVuSans-2e" d="M 684 794 
L 1344 794 
L 1344 0 
L 684 0 
L 684 794 
z
" transform="scale(0.015625)"/>
      <path id="DejaVuSans-2d" d="M 313 2009 
L 1997 2009 
L 1997 1497 
L 313 1497 
L 313 2009 
z
" transform="scale(0.015625)"/>
      <path id="DejaVuSans-64" d="M 2906 2969 
L 2906 4863 
L 3481 4863 
L 3481 0 
L 2906 0 
L 2906 525 
Q 2725 213 2448 61 
Q 2172 -91 1784 -91 
Q 1150 -91 751 415 
Q 353 922 353 1747 
Q 353 2572 751 3078 
Q 1150 3584 1784 3584 
Q 2172 3584 2448 3432 
Q 2725 3281 2906 2969 
z
M 947 1747 
Q 947 1113 1208 752 
Q 1469 391 1925 391 
Q 2381 391 2643 752 
Q 2906 1113 2906 1747 
Q 2906 2381 2643 2742 
Q 2381 3103 1925 3103 
Q 1469 3103 1208 2742 
Q 947 2381 947 1747 
z
" transform="scale(0.015625)"/>
      <path id="DejaVuSans-3d" d="M 678 2906 
L 4684 2906 
L 4684 2381 
L 678 2381 
L 678 2906 
z
M 678 1631 
L 4684 1631 
L 4684 1100 
L 678 1100 
L 678 1631 
z
" transform="scale(0.015625)"/>
      <path id="DejaVuSans-4f" d="M 2522 4238 
Q 1834 4238 1429 3725 
Q 1025 3213 1025 2328 
Q 1025 1447 1429 934 
Q 1834 422 2522 422 
Q 3209 422 3611 934 
Q 4013 1447 4013 2328 
Q 4013 3213 3611 3725 
Q 3209 4238 2522 4238 
z
M 2522 4750 
Q 3503 4750 4090 4092 
Q 4678 3434 4678 2328 
Q 4678 1225 4090 567 
Q 3503 -91 2522 -91 
Q 1538 -91 948 565 
Q 359 1222 359 2328 
Q 359 3434 948 4092 
Q 1538 4750 2522 4750 
z
" transform="scale(0.015625)"/>
      <path id="DejaVuSans-61" d="M 2194 1759 
Q 1497 1759 1228 1600 
Q 959 1441 959 1056 
Q 959 750 1161 570 
Q 1363 391 1709 391 
Q 2188 391 2477 730 
Q 2766 1069 2766 1631 
L 2766 1759 
L 2194 1759 
z
M 3341 1997 
L 3341 0 
L 2766 0 
L 2766 531 
Q 2569 213 2275 61 
Q 1981 -91 1556 -91 
Q 1019 -91 701 211 
Q 384 513 384 1019 
Q 384 1609 779 1909 
Q 1175 2209 1959 2209 
L 2766 2209 
L 2766 2266 
Q 2766 2663 2505 2880 
Q 2244 3097 1772 3097 
Q 1472 3097 1187 3025 
Q 903 2953 641 2809 
L 641 3341 
Q 956 3463 1253 3523 
Q 1550 3584 1831 3584 
Q 2591 3584 2966 3190 
Q 3341 2797 3341 1997 
z
" transform="scale(0.015625)"/>
      <path id="DejaVuSans-76" d="M 191 3500 
L 800 3500 
L 1894 563 
L 2988 3500 
L 3597 3500 
L 2284 0 
L 1503 0 
L 191 3500 
z
" transform="scale(0.015625)"/>
      <path id="DejaVuSans-78" d="M 3513 3500 
L 2247 1797 
L 3578 0 
L 2900 0 
L 1881 1375 
L 863 0 
L 184 0 
L 1544 1831 
L 300 3500 
L 978 3500 
L 1906 2253 
L 2834 3500 
L 3513 3500 
z
" transform="scale(0.015625)"/>
     </defs>
     <use xlink:href="#DejaVuSans-63"/>
     <use xlink:href="#DejaVuSans-6f" x="54.980469"/>
     <use xlink:href="#DejaVuSans-6d" x="116.162109"/>
     <use xlink:href="#DejaVuSans-70" x="213.574219"/>
     <use xlink:href="#DejaVuSans-69" x="277.050781"/>
     <use xlink:href="#DejaVuSans-6c" x="304.833984"/>
     <use xlink:href="#DejaVuSans-65" x="332.617188"/>
     <use xlink:href="#DejaVuSans-3a" x="394.140625"/>
     <use xlink:href="#DejaVuSans-20" x="427.832031"/>
     <use xlink:href="#DejaVuSans-67" x="459.619141"/>
     <use xlink:href="#DejaVuSans-2b" x="523.095703"/>
     <use xlink:href="#DejaVuSans-2b" x="606.884766"/>
     <use xlink:href="#DejaVuSans-20" x="690.673828"/>
     <use xlink:href="#DejaVuSans-42" x="722.460938"/>
     <use xlink:href="#DejaVuSans-2e" x="791.064453"/>
     <use xlink:href="#DejaVuSans-63" x="822.851562"/>
     <use xlink:href="#DejaVuSans-70" x="877.832031"/>
     <use xlink:href="#DejaVuSans-70" x="941.308594"/>
     <use xlink:href="#DejaVuSans-20" x="1004.785156"/>
     <use xlink:href="#DejaVuSans-2d" x="1036.572266"/>
     <use xlink:href="#DejaVuSans-6f" x="1074.53125"/>
     <use xlink:href="#DejaVuSans-20" x="1135.712891"/>
     <use xlink:href="#DejaVuSans-42" x="1167.5"/>
     <use xlink:href="#DejaVuSans-20" x="1236.103516"/>
     <use xlink:href="#DejaVuSans-2d" x="1267.890625"/>
     <use xlink:href="#DejaVuSans-73" x="1303.974609"/>
     <use xlink:href="#DejaVuSans-74" x="1356.074219"/>
     <use xlink:href="#DejaVuSans-64" x="1395.283203"/>
     <use xlink:href="#DejaVuSans-3d" x="1458.759766"/>
     <use xlink:href="#DejaVuSans-63" x="1542.548828"/>
     <use xlink:href="#DejaVuSans-2b" x="1597.529297"/>
     <use xlink:href="#DejaVuSans-2b" x="1681.318359"/>
     <use xlink:href="#DejaVuSans-32" x="1765.107422"/>
     <use xlink:href="#DejaVuSans-33" x="1828.730469"/>
     <use xlink:href="#DejaVuSans-20" x="1892.353516"/>
     <use xlink:href="#DejaVuSans-2d" x="1924.140625"/>
     <use xlink:href="#DejaVuSans-4f" x="1962.974609"/>
     <use xlink:href="#DejaVuSans-32" x="2041.685547"/>
     <use xlink:href="#DejaVuSans-20" x="2105.308594"/>
     <use xlink:href="#DejaVuSans-2d" x="2137.095703"/>
     <use xlink:href="#DejaVuSans-6d" x="2173.179688"/>
     <use xlink:href="#DejaVuSans-61" x="2270.591797"/>
     <use xlink:href="#DejaVuSans-76" x="2331.871094"/>
     <use xlink:href="#DejaVuSans-78" x="2391.050781"/>
     <use xlink:href="#DejaVuSans-32" x="2450.230469"/>
    </g>
    <!-- proc: 11th Gen Intel i5-1135G7 -->
    <g transform="translate(260.878125 40.656) scale(0.12 -0.12)">
     <defs>
      <path id="DejaVuSans-68" d="M 3513 2113 
L 3513 0 
L 2938 0 
L 2938 2094 
Q 2938 2591 2744 2837 
Q 2550 3084 2163 3084 
Q 1697 3084 1428 2787 
Q 1159 2491 1159 1978 
L 1159 0 
L 581 0 
L 581 4863 
L 1159 4863 
L 1159 2956 
Q 1366 3272 1645 3428 
Q 1925 3584 2291 3584 
Q 2894 3584 3203 3211 
Q 3513 2838 3513 2113 
z
" transform="scale(0.015625)"/>
      <path id="DejaVuSans-47" d="M 3809 666 
L 3809 1919 
L 2778 1919 
L 2778 2438 
L 4434 2438 
L 4434 434 
Q 4069 175 3628 42 
Q 3188 -91 2688 -91 
Q 1594 -91 976 548 
Q 359 1188 359 2328 
Q 359 3472 976 4111 
Q 1594 4750 2688 4750 
Q 3144 4750 3555 4637 
Q 3966 4525 4313 4306 
L 4313 3634 
Q 3963 3931 3569 4081 
Q 3175 4231 2741 4231 
Q 1884 4231 1454 3753 
Q 1025 3275 1025 2328 
Q 1025 1384 1454 906 
Q 1884 428 2741 428 
Q 3075 428 3337 486 
Q 3600 544 3809 666 
z
" transform="scale(0.015625)"/>
      <path id="DejaVuSans-49" d="M 628 4666 
L 1259 4666 
L 1259 0 
L 628 0 
L 628 4666 
z
" transform="scale(0.015625)"/>
     </defs>
     <use xlink:href="#DejaVuSans-70"/>
     <use xlink:href="#DejaVuSans-72" x="63.476562"/>
     <use xlink:href="#DejaVuSans-6f" x="102.339844"/>
     <use xlink:href="#DejaVuSans-63" x="163.521484"/>
     <use xlink:href="#DejaVuSans-3a" x="218.501953"/>
     <use xlink:href="#DejaVuSans-20" x="252.193359"/>
     <use xlink:href="#DejaVuSans-31" x="283.980469"/>
     <use xlink:href="#DejaVuSans-31" x="347.603516"/>
     <use xlink:href="#DejaVuSans-74" x="411.226562"/>
     <use xlink:href="#DejaVuSans-68" x="450.435547"/>
     <use xlink:href="#DejaVuSans-20" x="513.814453"/>
     <use xlink:href="#DejaVuSans-47" x="545.601562"/>
     <use xlink:href="#DejaVuSans-65" x="623.091797"/>
     <use xlink:href="#DejaVuSans-6e" x="684.615234"/>
     <use xlink:href="#DejaVuSans-20" x="747.994141"/>
     <use xlink:href="#DejaVuSans-49" x="779.78125"/>
     <use xlink:href="#DejaVuSans-6e" x="809.273438"/>
     <use xlink:href="#DejaVuSans-74" x="872.652344"/>
     <use xlink:href="#DejaVuSans-65" x="911.861328"/>
     <use xlink:href="#DejaVuSans-6c" x="973.384766"/>
     <use xlink:href="#DejaVuSans-20" x="1001.167969"/>
     <use xlink:href="#DejaVuSans-69" x="1032.955078"/>
     <use xlink:href="#DejaVuSans-35" x="1060.738281"/>
     <use xlink:href="#DejaVuSans-2d" x="1124.361328"/>
     <use xlink:href="#DejaVuSans-31" x="1160.445312"/>
     <use xlink:href="#DejaVuSans-31" x="1224.068359"/>
     <use xlink:href="#DejaVuSans-33" x="1287.691406"/>
     <use xlink:href="#DejaVuSans-35" x="1351.314453"/>
     <use xlink:href="#DejaVuSans-47" x="1414.9375"/>
     <use xlink:href="#DejaVuSans-37" x="1492.427734"/>
    </g>
   </g>
   <g id="legend_1">
    <g id="patch_7">
     <path d="M 93.4 143.83725 
L 236.339063 143.83725 
Q 238.339063 143.83725 238.339063 141.83725 
L 238.339063 53.656 
Q 238.339063 51.656 236.339063 51.656 
L 93.4 51.656 
Q 91.4 51.656 91.4 53.656 
L 91.4 141.83725 
Q 91.4 143.83725 93.4 143.83725 
z
" style="fill: #ffffff; opacity: 0.8; stroke: #cccccc; stroke-linejoin: miter"/>
    </g>
    <g id="line2d_58">
     <path d="M 95.4 59.754437 
L 105.4 59.754437 
L 115.4 59.754437 
" style="fill: none; stroke: #1f77b4; stroke-width: 1.5; stroke-linecap: square"/>
    </g>
    <g id="text_28">
     <!-- scalar -->
     <g transform="translate(123.4 63.254437) scale(0.1 -0.1)">
      <use xlink:href="#DejaVuSans-73"/>
      <use xlink:href="#DejaVuSans-63" x="52.099609"/>
      <use xlink:href="#DejaVuSans-61" x="107.080078"/>
      <use xlink:href="#DejaVuSans-6c" x="168.359375"/>
      <use xlink:href="#DejaVuSans-61" x="196.142578"/>
      <use xlink:href="#DejaVuSans-72" x="257.421875"/>
     </g>
    </g>
    <g id="line2d_59">
     <path d="M 95.4 74.432563 
L 105.4 74.432563 
L 115.4 74.432563 
" style="fill: none; stroke: #ff7f0e; stroke-width: 1.5; stroke-linecap: square"/>
    </g>
    <g id="text_29">
     <!-- simd_naive -->
     <g transform="translate(123.4 77.932563) scale(0.1 -0.1)">
      <use xlink:href="#DejaVuSans-73"/>
      <use xlink:href="#DejaVuSans-69" x="52.099609"/>
      <use xlink:href="#DejaVuSans-6d" x="79.882812"/>
      <use xlink:href="#DejaVuSans-64" x="177.294922"/>
      <use xlink:href="#DejaVuSans-5f" x="240.771484"/>
      <use xlink:href="#DejaVuSans-6e" x="290.771484"/>
      <use xlink:href="#DejaVuSans-61" x="354.150391"/>
      <use xlink:href="#DejaVuSans-69" x="415.429688"/>
      <use xlink:href="#DejaVuSans-76" x="443.212891"/>
      <use xlink:href="#DejaVuSans-65" x="502.392578"/>
     </g>
    </g>
    <g id="line2d_60">
     <path d="M 95.4 89.388812 
L 105.4 89.388812 
L 115.4 89.388812 
" style="fill: none; stroke: #2ca02c; stroke-width: 1.5; stroke-linecap: square"/>
    </g>
    <g id="text_30">
     <!-- simd_naive_unaligned -->
     <g transform="translate(123.4 92.888812) scale(0.1 -0.1)">
      <defs>
       <path id="DejaVuSans-75" d="M 544 1381 
L 544 3500 
L 1119 3500 
L 1119 1403 
Q 1119 906 1312 657 
Q 1506 409 1894 409 
Q 2359 409 2629 706 
Q 2900 1003 2900 1516 
L 2900 3500 
L 3475 3500 
L 3475 0 
L 2900 0 
L 2900 538 
Q 2691 219 2414 64 
Q 2138 -91 1772 -91 
Q 1169 -91 856 284 
Q 544 659 544 1381 
z
M 1991 3584 
L 1991 3584 
z
" transform="scale(0.015625)"/>
      </defs>
      <use xlink:href="#DejaVuSans-73"/>
      <use xlink:href="#DejaVuSans-69" x="52.099609"/>
      <use xlink:href="#DejaVuSans-6d" x="79.882812"/>
      <use xlink:href="#DejaVuSans-64" x="177.294922"/>
      <use xlink:href="#DejaVuSans-5f" x="240.771484"/>
      <use xlink:href="#DejaVuSans-6e" x="290.771484"/>
      <use xlink:href="#DejaVuSans-61" x="354.150391"/>
      <use xlink:href="#DejaVuSans-69" x="415.429688"/>
      <use xlink:href="#DejaVuSans-76" x="443.212891"/>
      <use xlink:href="#DejaVuSans-65" x="502.392578"/>
      <use xlink:href="#DejaVuSans-5f" x="563.916016"/>
      <use xlink:href="#DejaVuSans-75" x="613.916016"/>
      <use xlink:href="#DejaVuSans-6e" x="677.294922"/>
      <use xlink:href="#DejaVuSans-61" x="740.673828"/>
      <use xlink:href="#DejaVuSans-6c" x="801.953125"/>
      <use xlink:href="#DejaVuSans-69" x="829.736328"/>
      <use xlink:href="#DejaVuSans-67" x="857.519531"/>
      <use xlink:href="#DejaVuSans-6e" x="920.996094"/>
      <use xlink:href="#DejaVuSans-65" x="984.375"/>
      <use xlink:href="#DejaVuSans-64" x="1045.898438"/>
     </g>
    </g>
    <g id="line2d_61">
     <path d="M 95.4 104.345062 
L 105.4 104.345062 
L 115.4 104.345062 
" style="fill: none; stroke: #d62728; stroke-width: 1.5; stroke-linecap: square"/>
    </g>
    <g id="text_31">
     <!-- simd -->
     <g transform="translate(123.4 107.845062) scale(0.1 -0.1)">
      <use xlink:href="#DejaVuSans-73"/>
      <use xlink:href="#DejaVuSans-69" x="52.099609"/>
      <use xlink:href="#DejaVuSans-6d" x="79.882812"/>
      <use xlink:href="#DejaVuSans-64" x="177.294922"/>
     </g>
    </g>
    <g id="line2d_62">
     <path d="M 95.4 119.023188 
L 105.4 119.023188 
L 115.4 119.023188 
" style="fill: none; stroke: #9467bd; stroke-width: 1.5; stroke-linecap: square"/>
    </g>
    <g id="text_32">
     <!-- simd_unaligned -->
     <g transform="translate(123.4 122.523188) scale(0.1 -0.1)">
      <use xlink:href="#DejaVuSans-73"/>
      <use xlink:href="#DejaVuSans-69" x="52.099609"/>
      <use xlink:href="#DejaVuSans-6d" x="79.882812"/>
      <use xlink:href="#DejaVuSans-64" x="177.294922"/>
      <use xlink:href="#DejaVuSans-5f" x="240.771484"/>
      <use xlink:href="#DejaVuSans-75" x="290.771484"/>
      <use xlink:href="#DejaVuSans-6e" x="354.150391"/>
      <use xlink:href="#DejaVuSans-61" x="417.529297"/>
      <use xlink:href="#DejaVuSans-6c" x="478.808594"/>
      <use xlink:href="#DejaVuSans-69" x="506.591797"/>
      <use xlink:href="#DejaVuSans-67" x="534.375"/>
      <use xlink:href="#DejaVuSans-6e" x="597.851562"/>
      <use xlink:href="#DejaVuSans-65" x="661.230469"/>
      <use xlink:href="#DejaVuSans-64" x="722.753906"/>
     </g>
    </g>
    <g id="line2d_63">
     <path d="M 95.4 133.979438 
L 105.4 133.979438 
L 115.4 133.979438 
" style="fill: none; stroke: #8c564b; stroke-width: 1.5; stroke-linecap: square"/>
    </g>
    <g id="text_33">
     <!-- simd_x2 -->
     <g transform="translate(123.4 137.479438) scale(0.1 -0.1)">
      <use xlink:href="#DejaVuSans-73"/>
      <use xlink:href="#DejaVuSans-69" x="52.099609"/>
      <use xlink:href="#DejaVuSans-6d" x="79.882812"/>
      <use xlink:href="#DejaVuSans-64" x="177.294922"/>
      <use xlink:href="#DejaVuSans-5f" x="240.771484"/>
      <use xlink:href="#DejaVuSans-78" x="290.771484"/>
      <use xlink:href="#DejaVuSans-32" x="349.951172"/>
     </g>
    </g>
   </g>
  </g>
 </g>
 <defs>
  <clipPath id="pc24bff29a6">
   <rect x="86.4" y="46.656" width="535.68" height="299.376"/>
  </clipPath>
 </defs>
</svg>
